<svg height="512pt" viewBox="0 0 512 512.0004" width="512pt" xmlns="http://www.w3.org/2000/svg"><path d="m503.46875 153.601562v315.730469c-.03125 9.414063-7.65625 17.039063-17.070312 17.070313h-25.597657c9.414063-.03125 17.039063-7.65625 17.066407-17.070313v-315.730469c-.027344-9.414062-7.652344-17.039062-17.066407-17.066406h25.597657c9.414062.027344 17.039062 7.652344 17.070312 17.066406zm0 0" fill="#4e342e"/><path d="m477.867188 153.601562v315.730469c-.027344 9.414063-7.652344 17.039063-17.066407 17.070313h-162.132812c-.070313 9.394531-7.671875 16.996094-17.066407 17.066406h-51.203124c-9.414063-.03125-17.035157-7.65625-17.066407-17.066406h-187.730469c-9.414062-.03125-17.039062-7.65625-17.066406-17.070313v-315.730469c.027344-9.414062 7.652344-17.039062 17.066406-17.066406h435.199219c9.414063.027344 17.039063 7.652344 17.066407 17.066406zm0 0" fill="#795548"/><path d="m469.332031 179.199219v264.535156c0 4.710937-3.820312 8.53125-8.53125 8.53125h-187.734375c-9.414062-.027344-17.039062-7.652344-17.066406-17.066406l-17.066406-115.199219 17.066406-106.667969c0-23.5625 19.101562-42.664062 42.667969-42.664062h162.132812c4.710938 0 8.53125 3.820312 8.53125 8.53125zm0 0" fill="#607d8b"/><path d="m443.734375 179.199219v264.535156c0 4.710937-3.820313 8.53125-8.535156 8.53125h-162.132813c-9.414062-.027344-17.039062-7.652344-17.066406-17.066406l-17.066406-115.199219 17.066406-106.667969c0-23.5625 19.101562-42.664062 42.667969-42.664062h136.53125c4.714843 0 8.535156 3.820312 8.535156 8.53125zm0 0" fill="#cfd8dc"/><path d="m181.078125 170.667969h32.253906c23.566407 0 42.667969 19.101562 42.667969 42.664062v221.867188c-.027344 9.414062-7.652344 17.039062-17.066406 17.066406h-187.734375c-4.710938 0-8.53125-3.820313-8.53125-8.53125v-264.535156c0-4.710938 3.820312-8.53125 8.53125-8.53125zm0 0" fill="#cfd8dc"/><path d="m435.199219 187.734375v59.734375h-34.132813v-59.734375c.007813-5.707031-.335937-11.40625-1.023437-17.066406-9.101563-76.203125-75.980469-132.132813-152.589844-127.609375-76.613281 4.523437-136.445313 67.929687-136.519531 144.675781v59.734375h-34.132813v-59.734375c-.015625-5.699219.269531-11.398437.851563-17.066406 1.054687-11.570313 3.253906-23.003907 6.570312-34.132813 22.664063-75.953125 92.515625-128.007812 171.777344-128.007812s149.113281 52.054687 171.777344 128.007812c3.316406 11.128906 5.519531 22.5625 6.570312 34.132813.582032 5.667969.867188 11.367187.851563 17.066406zm0 0" fill="#c52828"/><path d="m401.066406 187.734375v59.734375h-34.132812v-59.734375c0-61.265625-49.667969-110.933594-110.933594-110.933594s-110.933594 49.667969-110.933594 110.933594v59.734375h-34.132812v-59.734375c.074218-76.746094 59.90625-140.152344 136.519531-144.675781 76.609375-4.523438 143.488281 51.40625 152.589844 127.609375.6875 5.660156 1.03125 11.359375 1.023437 17.066406zm0 0" fill="#fec108"/><path d="m366.933594 187.734375v59.734375h-34.132813v-59.734375c-.011719-5.742187-.640625-11.460937-1.878906-17.066406-2.957031-12.6875-9.0625-24.425781-17.75-34.132813-14.539063-16.289062-35.335937-25.601562-57.171875-25.601562-21.832031 0-42.632812 9.3125-57.171875 25.601562-8.6875 9.707032-14.789063 21.445313-17.75 34.132813-1.238281 5.605469-1.867187 11.324219-1.878906 17.066406v59.734375h-34.132813v-59.734375c0-61.265625 49.667969-110.933594 110.933594-110.933594s110.933594 49.667969 110.933594 110.933594zm0 0" fill="#2296f3"/><path d="m25.601562 494.933594h180.65625c3.632813 10.21875 13.296876 17.054687 24.140626 17.066406h51.203124c10.824219-.082031 20.457032-6.890625 24.148438-17.066406h180.648438c14.140624 0 25.601562-11.460938 25.601562-25.601563v-315.730469c0-14.140624-11.460938-25.601562-25.601562-25.601562h-52.539063c-25.609375-76.460938-97.222656-128-177.859375-128s-152.25 51.539062-177.859375 128h-52.539063c-14.140624 0-25.601562 11.460938-25.601562 25.601562v315.730469c0 14.140625 11.460938 25.601563 25.601562 25.601563zm230.398438-477.867188c75.371094.308594 141.726562 49.75 163.585938 121.882813 3.167968 10.636719 5.273437 21.566406 6.277343 32.621093.550781 5.371094.816407 10.765626.804688 16.164063v59.734375c0 4.710938 3.820312 8.53125 8.53125 8.53125 4.714843 0 8.535156-3.820312 8.535156-8.53125v-59.734375c0-2.917969-.078125-5.761719-.207031-8.535156h17.273437v264.535156h-187.734375c-4.710937 0-8.53125-3.820313-8.53125-8.535156v-221.867188c0-18.851562 15.28125-34.132812 34.132813-34.132812h25.019531c.371094 2.832031.5625 5.679687.578125 8.535156v59.734375c0 4.710938 3.820313 8.53125 8.535156 8.53125 4.710938 0 8.53125-3.820312 8.53125-8.53125v-59.734375c-.011719-6.390625-.71875-12.757813-2.097656-18.996094-8.964844-38.765625-43.449219-66.246093-83.234375-66.335937-24.257812.035156-47.355469 10.378906-63.539062 28.449218-9.65625 10.808594-16.4375 23.871094-19.71875 37.988282-1.367188 6.207031-2.0625 12.539062-2.074219 18.894531v59.734375c0 4.710938 3.820312 8.53125 8.53125 8.53125 4.714843 0 8.535156-3.820312 8.535156-8.53125v-59.734375c.015625-2.855469.207031-5.703125.578125-8.535156h25.019531c18.851563 0 34.136719 15.28125 34.136719 34.132812v221.867188c0 4.714843-3.824219 8.535156-8.535156 8.535156h-187.734375v-264.535156h17.28125c-.128907 2.78125-.214844 5.625-.214844 8.535156v59.734375c0 4.710938 3.820313 8.53125 8.535156 8.53125 4.710938 0 8.53125-3.820312 8.53125-8.53125v-59.734375c0-5.453125.285157-10.902344.855469-16.324219 1.007812-10.988281 3.101562-21.851562 6.253906-32.425781 21.847656-72.136719 88.1875-121.585937 163.558594-121.917969zm-42.667969 145.066406h-20.476562c2.953125-7.28125 7.125-14.011718 12.328125-19.898437 12.921875-14.480469 31.410156-22.757813 50.816406-22.757813s37.894531 8.277344 50.816406 22.757813c5.203125 5.890625 9.375 12.617187 12.332032 19.898437h-20.480469c-17.171875.011719-33.195313 8.632813-42.667969 22.957032-9.472656-14.324219-25.496094-22.945313-42.667969-22.957032zm-196.265625-8.53125c0-4.714843 3.820313-8.535156 8.535156-8.535156h47.589844c-1.332031 5.734375-2.390625 11.445313-3.148437 17.066406h-18.84375c-9.425781 0-17.066407 7.640626-17.066407 17.066407v264.535156c0 9.425781 7.640626 17.066406 17.066407 17.066406h187.734375c6.316406-.023437 12.402344-2.394531 17.066406-6.65625 4.664062 4.261719 10.75 6.632813 17.066406 6.65625h187.734375c9.425781 0 17.066407-7.640625 17.066407-17.066406v-264.535156c0-9.425781-7.640626-17.066407-17.066407-17.066407h-19.046875c-.757812-5.65625-1.800781-11.332031-3.132812-17.066406h47.777344c4.714843 0 8.535156 3.820313 8.535156 8.535156v315.730469c0 4.714844-3.820313 8.535157-8.535156 8.535157h-187.730469c-4.714844 0-8.535157 3.820312-8.535157 8.535156.007813 2.296875-.9375 4.496094-2.609374 6.074218-1.558594 1.59375-3.695313 2.480469-5.921876 2.457032h-51.203124c-4.710938 0-8.53125-3.820313-8.53125-8.53125 0-4.714844-3.820313-8.535156-8.535157-8.535156h-187.730469c-4.714843 0-8.535156-3.820313-8.535156-8.535157zm0 0"/><path d="m110.933594 256c4.710937 0 8.535156-3.820312 8.535156-8.53125v-59.734375c.089844-72.222656 56.40625-131.878906 128.503906-136.125s135.027344 48.386719 143.597656 120.097656c.648438 5.316407.96875 10.671875.964844 16.027344v59.734375c0 4.710938 3.820313 8.53125 8.53125 8.53125 4.714844 0 8.535156-3.820312 8.535156-8.53125v-59.734375c.003907-6.03125-.355468-12.054687-1.078124-18.039063-9.039063-77.363281-74.632813-135.664062-152.523438-135.5625-40.746094-.03125-79.835938 16.140626-108.648438 44.953126s-44.984374 67.898437-44.953124 108.648437v59.734375c0 2.261719.902343 4.433594 2.5 6.03125 1.601562 1.601562 3.773437 2.5 6.035156 2.5zm0 0"/><path d="m358.398438 247.46875c0 4.710938 3.824218 8.53125 8.535156 8.53125 4.710937 0 8.535156-3.820312 8.535156-8.53125v-59.734375c0-65.980469-53.488281-119.46875-119.46875-119.46875s-119.464844 53.488281-119.464844 119.46875v59.734375c0 4.710938 3.820313 8.53125 8.53125 8.53125 4.714844 0 8.535156-3.820312 8.535156-8.53125v-59.734375c0-56.554687 45.84375-102.402344 102.398438-102.402344s102.398438 45.847657 102.398438 102.402344zm0 0"/><path d="m128 332.800781c4.714844 0 8.535156-3.820312 8.535156-8.535156v-17.066406c0-4.710938-3.820312-8.53125-8.535156-8.53125-4.710938 0-8.53125 3.820312-8.53125 8.53125v17.066406c0 4.714844 3.820312 8.535156 8.53125 8.535156zm0 0"/><path d="m128 349.867188c-4.710938 0-8.53125 3.820312-8.53125 8.535156v17.066406c0 4.710938 3.820312 8.53125 8.53125 8.53125 4.714844 0 8.535156-3.820312 8.535156-8.53125v-17.066406c0-4.714844-3.820312-8.535156-8.535156-8.535156zm0 0"/><path d="m162.132812 332.800781h-17.066406c-4.710937 0-8.53125 3.820313-8.53125 8.53125 0 4.714844 3.820313 8.535157 8.53125 8.535157h17.066406c4.714844 0 8.535157-3.820313 8.535157-8.535157 0-4.710937-3.820313-8.53125-8.535157-8.53125zm0 0"/><path d="m85.332031 341.332031c0 4.714844 3.820313 8.535157 8.535157 8.535157h17.066406c4.710937 0 8.535156-3.820313 8.535156-8.535157 0-4.710937-3.824219-8.53125-8.535156-8.53125h-17.066406c-4.714844 0-8.535157 3.820313-8.535157 8.53125zm0 0"/><path d="m59.734375 8.535156c0-4.714844-3.820313-8.535156-8.535156-8.535156-4.710938 0-8.53125 3.820312-8.53125 8.535156v17.066406c0 4.710938 3.820312 8.53125 8.53125 8.53125 4.714843 0 8.535156-3.820312 8.535156-8.53125zm0 0"/><path d="m51.199219 85.332031c4.714843 0 8.535156-3.820312 8.535156-8.53125v-17.066406c0-4.714844-3.820313-8.535156-8.535156-8.535156-4.710938 0-8.53125 3.820312-8.53125 8.535156v17.066406c0 4.710938 3.820312 8.53125 8.53125 8.53125zm0 0"/><path d="m68.265625 51.199219h17.066406c4.714844 0 8.535157-3.820313 8.535157-8.53125 0-4.714844-3.820313-8.535157-8.535157-8.535157h-17.066406c-4.710937 0-8.53125 3.820313-8.53125 8.535157 0 4.710937 3.820313 8.53125 8.53125 8.53125zm0 0"/><path d="m42.667969 42.667969c0-4.714844-3.820313-8.535157-8.535157-8.535157h-17.066406c-4.710937 0-8.53125 3.820313-8.53125 8.535157 0 4.710937 3.820313 8.53125 8.53125 8.53125h17.066406c4.714844 0 8.535157-3.820313 8.535157-8.53125zm0 0"/><path d="m477.867188 25.601562c0-4.714843-3.820313-8.535156-8.535157-8.535156-4.710937 0-8.53125 3.820313-8.53125 8.535156v17.066407c0 4.710937 3.820313 8.53125 8.53125 8.53125 4.714844 0 8.535157-3.820313 8.535157-8.53125zm0 0"/><path d="m469.332031 102.402344c4.714844 0 8.535157-3.824219 8.535157-8.535156v-17.066407c0-4.714843-3.820313-8.535156-8.535157-8.535156-4.710937 0-8.53125 3.820313-8.53125 8.535156v17.066407c0 4.710937 3.820313 8.535156 8.53125 8.535156zm0 0"/><path d="m486.398438 68.265625h17.070312c4.710938 0 8.53125-3.820313 8.53125-8.53125 0-4.714844-3.820312-8.535156-8.53125-8.535156h-17.070312c-4.710938 0-8.53125 3.820312-8.53125 8.535156 0 4.710937 3.820312 8.53125 8.53125 8.53125zm0 0"/><path d="m452.265625 51.199219h-17.066406c-4.710938 0-8.53125 3.820312-8.53125 8.535156 0 4.710937 3.820312 8.53125 8.53125 8.53125h17.066406c4.714844 0 8.535156-3.820313 8.535156-8.53125 0-4.714844-3.820312-8.535156-8.535156-8.535156zm0 0"/><path d="m375.46875 307.199219c0 4.714843 3.820312 8.535156 8.53125 8.535156 4.714844 0 8.535156-3.820313 8.535156-8.535156v-17.066407c0-4.710937-3.820312-8.53125-8.535156-8.53125-4.710938 0-8.53125 3.820313-8.53125 8.53125zm0 0"/><path d="m384 332.800781c-4.710938 0-8.53125 3.820313-8.53125 8.53125v17.070313c0 4.710937 3.820312 8.53125 8.53125 8.53125 4.714844 0 8.535156-3.820313 8.535156-8.53125v-17.070313c0-4.710937-3.820312-8.53125-8.535156-8.53125zm0 0"/><path d="m392.535156 324.265625c0 4.714844 3.820313 8.535156 8.53125 8.535156h17.066406c4.714844 0 8.535157-3.820312 8.535157-8.535156 0-4.710937-3.820313-8.53125-8.535157-8.53125h-17.066406c-4.710937 0-8.53125 3.820313-8.53125 8.53125zm0 0"/><path d="m366.933594 315.734375h-17.066406c-4.714844 0-8.535157 3.820313-8.535157 8.53125 0 4.714844 3.820313 8.535156 8.535157 8.535156h17.066406c4.710937 0 8.535156-3.820312 8.535156-8.535156 0-4.710937-3.824219-8.53125-8.535156-8.53125zm0 0"/><path d="m196.265625 307.199219c0 4.714843-3.820313 8.535156-8.53125 8.535156-4.714844 0-8.535156-3.820313-8.535156-8.535156 0-4.710938 3.820312-8.53125 8.535156-8.53125 4.710937 0 8.53125 3.820312 8.53125 8.53125zm0 0"/><path d="m85.332031 281.601562c0 4.710938-3.820312 8.53125-8.53125 8.53125-4.714843 0-8.535156-3.820312-8.535156-8.53125 0-4.714843 3.820313-8.535156 8.535156-8.535156 4.710938 0 8.53125 3.820313 8.53125 8.535156zm0 0"/><path d="m187.734375 401.066406c0 4.714844-3.820313 8.535156-8.535156 8.535156-4.710938 0-8.53125-3.820312-8.53125-8.535156 0-4.710937 3.820312-8.53125 8.53125-8.53125 4.714843 0 8.535156 3.820313 8.535156 8.53125zm0 0"/><path d="m341.332031 290.132812c0 4.714844-3.820312 8.535157-8.53125 8.535157-4.714843 0-8.535156-3.820313-8.535156-8.535157 0-4.710937 3.820313-8.53125 8.535156-8.53125 4.710938 0 8.53125 3.820313 8.53125 8.53125zm0 0"/><path d="m332.800781 358.402344c0 4.710937-3.820312 8.53125-8.535156 8.53125-4.710937 0-8.53125-3.820313-8.53125-8.53125 0-4.714844 3.820313-8.535156 8.53125-8.535156 4.714844 0 8.535156 3.820312 8.535156 8.535156zm0 0"/><path d="m435.199219 375.46875c0 4.710938-3.820313 8.53125-8.53125 8.53125-4.714844 0-8.535157-3.820312-8.535157-8.53125 0-4.714844 3.820313-8.535156 8.535157-8.535156 4.710937 0 8.53125 3.820312 8.53125 8.535156zm0 0"/><path d="m418.132812 17.066406c0 4.714844-3.820312 8.535156-8.53125 8.535156-4.714843 0-8.535156-3.820312-8.535156-8.535156 0-4.710937 3.820313-8.53125 8.535156-8.53125 4.710938 0 8.53125 3.820313 8.53125 8.53125zm0 0"/><path d="m119.46875 17.066406c0 4.714844-3.824219 8.535156-8.535156 8.535156-4.710938 0-8.535156-3.820312-8.535156-8.535156 0-4.710937 3.824218-8.53125 8.535156-8.53125 4.710937 0 8.535156 3.820313 8.535156 8.53125zm0 0"/><path d="m25.601562 93.867188c0 4.710937-3.820312 8.535156-8.535156 8.535156-4.710937 0-8.53125-3.824219-8.53125-8.535156 0-4.714844 3.820313-8.535157 8.53125-8.535157 4.714844 0 8.535156 3.820313 8.535156 8.535157zm0 0"/></svg>