<svg height="512pt" viewBox="0 -3 512 511" width="512pt" xmlns="http://www.w3.org/2000/svg"><path d="m503.464844 407.105469c0 49.496093-110.761719 89.601562-247.464844 89.601562-4.265625 0-8.535156 0-12.714844-.085937 130.730469-2.472656 234.582032-41.558594 234.582032-89.515625 0-30.976563-43.351563-58.195313-109.226563-74.238281l-.085937-.085938c-1.960938-.425781-3.925782-.9375-5.972657-1.363281-.769531-1.792969-1.535156-3.671875-2.390625-5.546875 11.863282 1.960937 23.210938 4.351562 33.964844 6.910156l.082031.085938c65.878907 16.042968 109.226563 43.261718 109.226563 74.238281zm0 0" fill="#37474f"/><path d="m435.199219 423.660156c0 .257813-34.132813.511719-34.132813.769532-33.109375 7.851562-117.675781 12.542968-163.5 12.542968-3.667968 0-7.25 0-10.835937-.085937-34.101563-.332031-68.097657-3.84375-101.546875-10.496094-9.347656-2.542969-18.527344-5.675781-27.476563-9.386719-16.382812-8.277344-20.90625-13.480468-20.90625-23.890625 0-9.898437-15.019531-33.28125 0-41.472656 0 0-.085937-8.535156 0-8.535156 3.367188-.476563 6.78125-.503907 10.152344-.085938 5.136719.5 10.304687.53125 15.445313.085938l8.707031 6.488281 34.046875-158.808594c1.191406-5 3.496094-9.667968 6.742187-13.652344l69.972657-80.042968 125.523437-1.707032 25.601563-.339843-22.273438 193.023437c-1.875 17.492188 12.035156 29.527344 16.214844 46.507813 2.503906 5.328125 5.355468 10.488281 8.53125 15.445312.855468 2.21875-.851563 4.523438 0 6.65625 14.679687 38.058594 48.8125 57.257813 59.734375 66.984375zm0 0" fill="#37474f"/><path d="m477.867188 407.105469c0 47.957031-103.851563 87.042969-234.582032 89.515625h-.171875c-130.730469-2.472656-234.578125-41.558594-234.578125-89.515625 0-20.136719 18.257813-38.738281 49.148438-53.503907 14.050781-6.742187 28.671875-12.226562 43.691406-16.382812-13.226562 7.679688-20.734375 16.46875-20.734375 25.769531 0 9.816407 8.277344 18.945313 22.699219 26.796875 27.476562 15.1875 77.140625 25.683594 134.910156 27.136719h.855469c4.265625.082031 8.617187.167969 12.96875.167969 69.375 0 104.960937-15.785156 131.925781-34.558594-5.460938-1.964844-3.753906-9.046875-21.417969-51.113281 2.046875.425781 4.011719.9375 5.972657 1.363281l.085937.085938c65.875 16.042968 109.226563 43.261718 109.226563 74.238281zm0 0" fill="#607d8b"/><path d="m469.332031 411.375c0 .253906-93.867187 42.410156-93.867187 42.664062-29.78125 7.082032-101.289063-18.003906-148.734375-17.152343-34.101563-.332031-68.097657-3.84375-101.546875-10.496094-9.347656-2.542969-18.527344-5.675781-27.476563-9.386719-16.382812-8.277344-20.90625-13.480468-20.90625-23.890625 0-9.898437-15.019531-33.28125 0-41.472656 0 0-.085937-8.535156 0-8.535156l8.703125 6.488281 1.449219-6.574219c5.136719.5 10.304687.53125 15.445313.085938l8.707031 6.488281 34.046875-158.808594c1.191406-5 3.496094-9.667968 6.742187-13.652344l69.972657-80.042968 125.523437-1.707032-22.269531 192.683594c-1.878906 17.492188 12.03125 29.527344 16.210937 46.507813 1.023438 4.179687 16.300781-19.199219 17.066407-17.066407.769531 2.132813 16.214843 40.53125 17.066406 42.664063 14.679687 38.058594 82.945312 41.472656 93.867187 51.203125zm0 0" fill="#607d8b"/><path d="m464.980469 89.238281-259.414063 14.59375 68.867188-81.152343c9.304687-12.304688 25.683594-16.882813 40.019531-11.179688l153.257813 61.269531c3.753906 1.472657 5.964843 5.367188 5.304687 9.339844-.660156 3.976563-4.007813 6.949219-8.035156 7.128906zm0 0" fill="#37474f"/><path d="m366.328125 318.359375c-2.175781-5.289063-4.34375-10.964844-6.589844-17.5625-.371093-1.101563-.96875-2.109375-1.757812-2.96875l25.226562-195.414063 82.269531-4.574218c8.023438-.40625 14.675782-6.355469 15.972657-14.285156 1.300781-7.925782-3.105469-15.6875-10.578125-18.632813l-153.277344-61.355469c-17.742188-7.121094-38.054688-1.539062-49.664062 13.652344l-123.714844 145.765625c-3.628906 4.835937-6.1875 10.386719-7.511719 16.28125l-29.5 147.5c-68.164063 18.046875-107.203125 47.199219-107.203125 80.339844 0 55.03125 112.453125 98.132812 256 98.132812s256-43.101562 256-98.132812c0-39.0625-55.722656-72.875-145.671875-88.746094zm-110.328125 169.8125c-142.925781 0-238.933594-41.914063-238.933594-81.066406 0-22.960938 32.769532-46.078125 86.398438-61.617188l-9.425782 47.113281c-.453124 2.214844-.007812 4.523438 1.242188 6.410157 1.246094 1.890625 3.195312 3.207031 5.410156 3.65625.5625.117187 1.136719.175781 1.707032.171875 4.054687-.003906 7.546874-2.855469 8.355468-6.828125l42.667969-213.101563c.742187-3.332031 2.152344-6.484375 4.144531-9.257812l123.691406-145.828125c6.960938-9.242188 19.242188-12.6875 29.996094-8.414063l153.273438 61.3125-115.136719 6.382813c-4.714844.265625-8.320313 4.300781-8.058594 9.011719.265625 4.714843 4.300781 8.320312 9.011719 8.054687l15.53125-.851563-33.007812 255.761719c-.289063 2.246094.324218 4.511719 1.707031 6.304688 1.382812 1.792969 3.421875 2.960937 5.667969 3.25.359374.050781.726562.070312 1.089843.070312 4.289063-.003906 7.910157-3.1875 8.457031-7.441406l3.78125-29.335937c24.304688 54.613281 51.292969 61.59375 54.339844 62.207031.554688.117187 1.121094.171875 1.691406.171875 3.960938-.027344 7.378907-2.792969 8.222657-6.667969.984375-4.546875-1.816407-9.054687-6.328125-10.1875-.199219-.050781-17.726563-4.964844-36.355469-40.105469 72.296875 14.617188 119.792969 41.898438 119.792969 69.757813 0 39.152343-96.007813 81.066406-238.933594 81.066406zm0 0"/><path d="m286.320312 403.734375c-46.5 23.246094-94.089843.335937-94.78125 0-4.21875-2.101563-9.34375-.390625-11.449218 3.828125-2.101563 4.21875-.390625 9.34375 3.828125 11.449219 17.847656 8.105469 37.222656 12.308593 56.824219 12.328125 18.453124.121094 36.675781-4.085938 53.207031-12.285156 4.214843-2.109376 5.929687-7.234376 3.820312-11.453126-2.105469-4.21875-7.234375-5.929687-11.449219-3.824218zm0 0"/><path d="m93.867188 10.308594c-4.714844 0-8.535157 3.820312-8.535157 8.53125v8.535156c0 4.710938 3.820313 8.53125 8.535157 8.53125 4.710937 0 8.53125-3.820312 8.53125-8.53125v-8.535156c0-4.710938-3.820313-8.53125-8.53125-8.53125zm0 0"/><path d="m110.933594 52.972656h8.53125c4.714844 0 8.535156-3.820312 8.535156-8.53125 0-4.714844-3.820312-8.535156-8.535156-8.535156h-8.53125c-4.714844 0-8.535156 3.820312-8.535156 8.535156 0 4.710938 3.820312 8.53125 8.535156 8.53125zm0 0"/><path d="m85.332031 70.039062c0 4.714844 3.820313 8.535157 8.535157 8.535157 4.710937 0 8.53125-3.820313 8.53125-8.535157v-8.53125c0-4.714843-3.820313-8.535156-8.53125-8.535156-4.714844 0-8.535157 3.820313-8.535157 8.535156zm0 0"/><path d="m76.800781 35.90625h-8.535156c-4.710937 0-8.53125 3.820312-8.53125 8.535156 0 4.710938 3.820313 8.53125 8.53125 8.53125h8.535156c4.710938 0 8.53125-3.820312 8.53125-8.53125 0-4.714844-3.820312-8.535156-8.53125-8.535156zm0 0"/><path d="m486.398438 172.441406c0-4.714844-3.820313-8.535156-8.53125-8.535156-4.714844 0-8.535157 3.820312-8.535157 8.535156v8.53125c0 4.714844 3.820313 8.535156 8.535157 8.535156 4.710937 0 8.53125-3.820312 8.53125-8.535156zm0 0"/><path d="m503.464844 189.507812h-8.53125c-4.714844 0-8.535156 3.820313-8.535156 8.53125 0 4.714844 3.820312 8.535157 8.535156 8.535157h8.53125c4.714844 0 8.535156-3.820313 8.535156-8.535157 0-4.710937-3.820312-8.53125-8.535156-8.53125zm0 0"/><path d="m477.867188 232.171875c4.710937 0 8.53125-3.820313 8.53125-8.53125v-8.535156c0-4.710938-3.820313-8.53125-8.53125-8.53125-4.714844 0-8.535157 3.820312-8.535157 8.53125v8.535156c0 4.710937 3.820313 8.53125 8.535157 8.53125zm0 0"/><path d="m460.800781 189.507812h-8.535156c-4.710937 0-8.53125 3.820313-8.53125 8.53125 0 4.714844 3.820313 8.535157 8.53125 8.535157h8.535156c4.710938 0 8.53125-3.820313 8.53125-8.535157 0-4.710937-3.820312-8.53125-8.53125-8.53125zm0 0"/><path d="m51.199219 155.375c-4.710938 0-8.53125 3.820312-8.53125 8.53125v8.535156c0 4.710938 3.820312 8.53125 8.53125 8.53125 4.714843 0 8.535156-3.820312 8.535156-8.53125v-8.535156c0-4.710938-3.820313-8.53125-8.535156-8.53125zm0 0"/><path d="m68.265625 198.039062h8.535156c4.710938 0 8.53125-3.820312 8.53125-8.53125 0-4.714843-3.820312-8.535156-8.53125-8.535156h-8.535156c-4.710937 0-8.53125 3.820313-8.53125 8.535156 0 4.710938 3.820313 8.53125 8.53125 8.53125zm0 0"/><path d="m42.667969 215.105469c0 4.714843 3.820312 8.535156 8.53125 8.535156 4.714843 0 8.535156-3.820313 8.535156-8.535156v-8.53125c0-4.714844-3.820313-8.535157-8.535156-8.535157-4.710938 0-8.53125 3.820313-8.53125 8.535157zm0 0"/><path d="m34.132812 180.972656h-8.53125c-4.714843 0-8.535156 3.820313-8.535156 8.535156 0 4.710938 3.820313 8.53125 8.535156 8.53125h8.53125c4.714844 0 8.535157-3.820312 8.535157-8.53125 0-4.714843-3.820313-8.535156-8.535157-8.535156zm0 0"/></svg>