<?xml version="1.0" encoding="iso-8859-1"?>
<!-- Generator: Adobe Illustrator 19.0.0, SVG Export Plug-In . SVG Version: 6.00 Build 0)  -->
<svg version="1.1" id="Capa_1" xmlns="http://www.w3.org/2000/svg" xmlns:xlink="http://www.w3.org/1999/xlink" x="0px" y="0px"
	 viewBox="0 0 512 512" style="enable-background:new 0 0 512 512;" xml:space="preserve">
<g>
	<path style="fill:#57555C;" d="M425.33,208.01L87.16,208c-19.58,30.91-30.91,74.7-30.91,114c0,106.17,89.15,180,185.54,180h28.92
		c96.88,0,185.54-74.38,185.54-180C456.25,282.7,444.91,238.92,425.33,208.01z"/>
	<path style="fill:#57555C;" d="M406.25,162h-300c-16.57,0-30,13.43-30,30c0,16.622,13.496,30,30,30h93v-1.5
		c0-8.008,6.492-14.5,14.5-14.5s14.5,6.492,14.5,14.5v1.5h178c16.531,0,30-13.398,30-30C436.25,175.43,422.82,162,406.25,162z"/>
</g>
<path style="fill:#FEA832;" d="M405.19,32.11c9.88,4.94,13.88,16.95,8.94,26.84L368.61,162c-11.501,0-34.268,0-44.73,0l54.47-120.95
	C383.29,31.18,395.29,27.17,405.19,32.11z"/>
<g>
	<path style="fill:#3BCD92;" d="M356.25,282c0,11.05-8.95,20-20,20s-20-8.95-20-20v-40c0-11.05-8.95-20-20-20s-20,8.95-20,20v80
		c0,11.05-8.95,20-20,20c-11.05,0-20-8.95-20-20V222c0-11.05-8.95-20-20-20s-20,8.95-20,20s-8.95,20-20,20s-20-8.95-20-20v-60
		c21.904,0,173.371,0,200,0C356.25,176.518,356.25,267.386,356.25,282z"/>
	<path style="fill:#3BCD92;" d="M336.25,342c11.05,0,20,8.95,20,20s-8.95,20-20,20s-20-8.95-20-20S325.2,342,336.25,342z"/>
	<path style="fill:#3BCD92;" d="M256.25,50c11.05,0,20,8.95,20,20s-8.95,20-20,20c-11.05,0-20-8.95-20-20S245.2,50,256.25,50z"/>
	<path style="fill:#3BCD92;" d="M176.25,282c11.05,0,20,8.95,20,20s-8.95,20-20,20s-20-8.95-20-20S165.2,282,176.25,282z"/>
	<circle style="fill:#3BCD92;" cx="146.25" cy="40" r="30"/>
</g>
<path d="M236,452c-5.52,0-10,4.48-10,10s4.48,10,10,10s10-4.48,10-10S241.52,452,236,452z"/>
<path d="M241.54,512h28.92C373.923,512,466,432.175,466,322c0-37.23-9.795-73.526-28.391-105.477
	C443.011,209.576,446,200.996,446,192c0-22.056-17.944-40-40-40h-22.29l39.232-88.814c7.215-14.757,1.184-32.664-13.536-40.023
	c-14.796-7.383-32.852-1.366-40.248,13.412c-0.061,0.122-0.119,0.245-0.176,0.37L317.166,152H316c-21.781,0-181.939,0-210,0
	c-22.056,0-40,17.944-40,40c0,8.986,2.986,17.562,8.385,24.509C55.793,248.452,46,284.754,46,322C46,432.41,138.225,512,241.54,512z
	 M270.46,492h-28.92C157.118,492,66,427.004,66,322c0-32.834,8.406-64.849,24.385-93.19C95.297,230.893,100.609,232,106,232h41.72
	c4.128,11.639,15.243,20,28.28,20c16.542,0,30-13.458,30-30c0-5.514,4.486-10,10-10s10,4.486,10,10v100c0,16.542,13.458,30,30,30
	s30-13.458,30-30v-80c0-5.514,4.486-10,10-10s10,4.486,10,10v40c0,16.542,13.458,30,30,30s30-13.458,30-30v-50h40
	c5.388,0,10.697-1.105,15.603-3.182C437.59,257.168,446,289.18,446,322C446,415.738,367.253,492,270.46,492z M346,172v110
	c0,5.514-4.486,10-10,10s-10-4.486-10-10v-40c0-16.542-13.458-30-30-30s-30,13.458-30,30v80c0,5.514-4.486,10-10,10s-10-4.486-10-10
	V222c0-16.542-13.458-30-30-30s-30,13.458-30,30c0,5.514-4.486,10-10,10s-10-4.486-10-10v-50C205.173,172,306.543,172,346,172z
	 M426,192c0,11.01-8.91,20-20,20h-40v-40c12.039,0,27.211,0,40,0C417.028,172,426,180.972,426,192z M387.119,45.375
	c2.514-4.818,8.467-6.755,13.35-4.32c4.929,2.465,6.933,8.488,4.465,13.427c-0.07,0.141-0.138,0.284-0.201,0.428L361.845,152
	c-5.416,0-17.267,0-22.745,0L387.119,45.375z M106,172h40v40h-40c-4.697,0-9.099-1.582-12.723-4.57C88.652,203.61,86,197.986,86,192
	C86,180.972,94.972,172,106,172z"/>
<path d="M199.687,445.326C156.468,431.501,106,390.908,106,322c0-5.523-4.478-10-10-10s-10,4.477-10,10
	c0,68.965,45.859,122.628,107.593,142.375c1.014,0.324,2.04,0.478,3.049,0.478c4.232,0,8.164-2.709,9.522-6.956
	C207.847,452.636,204.946,447.008,199.687,445.326z"/>
<path d="M286,70c0-16.542-13.458-30-30-30s-30,13.458-30,30s13.458,30,30,30S286,86.542,286,70z M246,70c0-5.514,4.486-10,10-10
	s10,4.486,10,10s-4.486,10-10,10S246,75.514,246,70z"/>
<path d="M186,40c0-22.056-17.944-40-40-40s-40,17.944-40,40s17.944,40,40,40S186,62.056,186,40z M126,40c0-11.028,8.972-20,20-20
	s20,8.972,20,20s-8.972,20-20,20S126,51.028,126,40z"/>
<path d="M336,332c-16.542,0-30,13.458-30,30s13.458,30,30,30s30-13.458,30-30S352.542,332,336,332z M336,372
	c-5.514,0-10-4.486-10-10s4.486-10,10-10s10,4.486,10,10S341.514,372,336,372z"/>
<path d="M176,332c16.542,0,30-13.458,30-30s-13.458-30-30-30s-30,13.458-30,30S159.458,332,176,332z M176,292
	c5.514,0,10,4.486,10,10s-4.486,10-10,10s-10-4.486-10-10S170.486,292,176,292z"/>
<g>
</g>
<g>
</g>
<g>
</g>
<g>
</g>
<g>
</g>
<g>
</g>
<g>
</g>
<g>
</g>
<g>
</g>
<g>
</g>
<g>
</g>
<g>
</g>
<g>
</g>
<g>
</g>
<g>
</g>
</svg>
