<svg height="511.99698pt" viewBox="0 0 511.99698 511.99698" width="511.99698pt" xmlns="http://www.w3.org/2000/svg"><path d="m314.449219 245.84375-250.109375 250.113281c-10.03125 9.984375-26.242188 9.984375-36.269532 0l-12.03125-12.03125c-1.554687-1.585937-2.902343-3.363281-4.011718-5.292969-5.820313-10.042968-4.175782-22.742187 4.011718-30.972656l251.648438-251.648437 26.113281 27.816406zm0 0" fill="#1566c0"/><path d="m378.109375 182.1875-67.925781 67.925781-20.652344-22.015625-26.109375-27.820312 4.265625-4.265625 62.121094-62.125c9.996094-9.980469 26.1875-9.980469 36.183594 0l12.117187 12.117187c9.980469 9.996094 9.980469 26.1875 0 36.183594zm0 0" fill="#607d8b"/><path d="m293.117188 224.511719-250.113282 250.113281c-8.230468 8.1875-20.929687 9.832031-30.976562 4.007812-5.820313-10.042968-4.175782-22.742187 4.011718-30.972656l250.964844-250.96875zm0 0" fill="#2296f3"/><path d="m356.777344 160.851562-67.925782 67.925782-26.113281-27.816406 4.949219-4.949219 62.121094-62.125c8.230468-8.191407 20.933594-9.835938 30.976562-4.007813 5.828125 10.042969 4.183594 22.746094-4.007812 30.972656zm0 0" fill="#cfd8dc"/><path d="m70.335938 502 313.761718-313.761719c6.402344-6.402343 10-15.085937 10-24.136719 0-9.054687-3.597656-17.738281-10-24.136718l-12.046875-12.066406c-6.402343-6.402344-15.082031-10-24.136719-10-9.054687 0-17.734374 3.597656-24.136718 10l-313.78125 313.761718c-6.398438 6.402344-9.996094 15.082032-9.996094 24.136719 0 9.050781 3.597656 17.734375 9.996094 24.136719l12.066406 12.066406c6.402344 6.402344 15.085938 9.996094 24.136719 9.996094 9.054687 0 17.738281-3.59375 24.136719-9.996094zm265.492187-362.054688c3.199219-3.199218 7.542969-5 12.070313-5 4.527343 0 8.867187 1.800782 12.070312 5l12.082031 12.085938c3.203125 3.199219 5 7.542969 5 12.070312 0 4.527344-1.796875 8.867188-5 12.070313l-58.027343 57.964844c-.339844-.582031-.746094-1.117188-1.210938-1.601563l-36.933594-32.625zm-313.765625 337.921876c-3.199219-3.203126-5-7.542969-5-12.070313s1.800781-8.871094 5-12.070313l241.726562-241.714843 37.757813 33.320312c.277344.179688.5625.347657.855469.496094l-244.132813 244.105469c-6.753906 6.449218-17.386719 6.449218-24.140625 0zm0 0"/><path d="m497.429688 2.5-102.398438 102.398438c-2.21875 2.144531-3.109375 5.316406-2.328125 8.300781s3.113281 5.3125 6.09375 6.09375c2.984375.78125 6.15625-.109375 8.300781-2.328125l102.398438-102.398438c3.234375-3.347656 3.1875-8.671875-.101563-11.960937-3.292969-3.292969-8.617187-3.339844-11.964843-.105469zm0 0"/><path d="m366.929688 93.867188v-85.332032c0-4.714844-3.820313-8.535156-8.53125-8.535156-4.714844 0-8.535157 3.820312-8.535157 8.535156v85.332032c0 4.710937 3.820313 8.53125 8.535157 8.53125 4.710937 0 8.53125-3.820313 8.53125-8.53125zm0 0"/><path d="m503.464844 145.066406h-85.335938c-4.710937 0-8.53125 3.820313-8.53125 8.535156 0 4.710938 3.820313 8.53125 8.53125 8.53125h85.335938c4.710937 0 8.53125-3.820312 8.53125-8.53125 0-4.714843-3.820313-8.535156-8.53125-8.535156zm0 0"/><path d="m232.546875 28.457031c-1.507813 1.695313-2.277344 3.914063-2.144531 6.175781.132812 2.261719 1.160156 4.378907 2.851562 5.882813l76.800782 68.265625c2.289062 2.027344 5.480468 2.683594 8.378906 1.714844 2.902344-.964844 5.0625-3.40625 5.675781-6.398438.613281-2.996094-.417969-6.085937-2.703125-8.113281l-76.800781-68.269531c-1.695313-1.5-3.921875-2.265625-6.183594-2.128906-2.261719.140624-4.375 1.171874-5.875 2.871093zm0 0"/><path d="m503.464844 281.601562c3.53125-.003906 6.699218-2.179687 7.964844-5.476562 1.265624-3.296875.367187-7.035156-2.257813-9.398438l-85.332031-76.800781c-2.253906-2.109375-5.472656-2.839843-8.417969-1.90625-2.945313.9375-5.152344 3.390625-5.773437 6.414063-.625 3.027344.4375 6.152344 2.773437 8.171875l85.332031 76.800781c1.5625 1.417969 3.601563 2.199219 5.710938 2.195312zm0 0"/><path d="m196.261719 128c0 4.710938 3.824219 8.535156 8.535156 8.535156h76.800781c4.710938 0 8.53125-3.824218 8.53125-8.535156s-3.820312-8.535156-8.53125-8.535156h-76.800781c-4.710937 0-8.535156 3.824218-8.535156 8.535156zm0 0"/><path d="m401.0625 290.132812v-68.265624c0-4.714844-3.820312-8.535157-8.53125-8.535157-4.714844 0-8.535156 3.820313-8.535156 8.535157v68.265624c0 4.714844 3.820312 8.535157 8.535156 8.535157 4.710938 0 8.53125-3.820313 8.53125-8.535157zm0 0"/><path d="m170.664062 25.601562c-4.714843 0-8.535156 3.820313-8.535156 8.53125v8.535157c0 4.710937 3.820313 8.53125 8.535156 8.53125 4.710938 0 8.53125-3.820313 8.53125-8.53125v-8.535157c0-4.710937-3.820312-8.53125-8.53125-8.53125zm0 0"/><path d="m196.261719 51.199219h-8.53125c-4.714844 0-8.535157 3.820312-8.535157 8.535156 0 4.710937 3.820313 8.53125 8.535157 8.53125h8.53125c4.714843 0 8.535156-3.820313 8.535156-8.53125 0-4.714844-3.820313-8.535156-8.535156-8.535156zm0 0"/><path d="m162.128906 85.332031c0 4.714844 3.820313 8.535157 8.535156 8.535157 4.710938 0 8.53125-3.820313 8.53125-8.535157v-8.53125c0-4.714843-3.820312-8.535156-8.53125-8.535156-4.714843 0-8.535156 3.820313-8.535156 8.535156zm0 0"/><path d="m153.597656 51.199219h-8.535156c-4.710938 0-8.53125 3.820312-8.53125 8.535156 0 4.710937 3.820312 8.53125 8.53125 8.53125h8.535156c4.710938 0 8.53125-3.820313 8.53125-8.53125 0-4.714844-3.820312-8.535156-8.53125-8.535156zm0 0"/><path d="m469.332031 307.199219v8.535156c0 4.710937 3.820313 8.53125 8.53125 8.53125 4.714844 0 8.535157-3.820313 8.535157-8.53125v-8.535156c0-4.710938-3.820313-8.53125-8.535157-8.53125-4.710937 0-8.53125 3.820312-8.53125 8.53125zm0 0"/><path d="m503.464844 324.265625h-8.535156c-4.710938 0-8.53125 3.820313-8.53125 8.535156 0 4.710938 3.820312 8.53125 8.53125 8.53125h8.535156c4.710937 0 8.53125-3.820312 8.53125-8.53125 0-4.714843-3.820313-8.535156-8.53125-8.535156zm0 0"/><path d="m486.398438 349.867188c0-4.714844-3.820313-8.535157-8.535157-8.535157-4.710937 0-8.53125 3.820313-8.53125 8.535157v8.53125c0 4.714843 3.820313 8.535156 8.53125 8.535156 4.714844 0 8.535157-3.820313 8.535157-8.535156zm0 0"/><path d="m460.796875 324.265625h-8.535156c-4.710938 0-8.53125 3.820313-8.53125 8.535156 0 4.710938 3.820312 8.53125 8.53125 8.53125h8.535156c4.714844 0 8.535156-3.820312 8.535156-8.53125 0-4.714843-3.820312-8.535156-8.535156-8.535156zm0 0"/><path d="m341.332031 307.199219c0-4.710938-3.820312-8.53125-8.535156-8.53125-4.710937 0-8.535156 3.820312-8.535156 8.53125v8.535156c0 4.710937 3.824219 8.53125 8.535156 8.53125 4.714844 0 8.535156-3.820313 8.535156-8.53125zm0 0"/><path d="m349.863281 341.332031h8.535157c4.710937 0 8.53125-3.820312 8.53125-8.53125 0-4.714843-3.820313-8.535156-8.53125-8.535156h-8.535157c-4.710937 0-8.53125 3.820313-8.53125 8.535156 0 4.710938 3.820313 8.53125 8.53125 8.53125zm0 0"/><path d="m332.796875 366.933594c4.714844 0 8.535156-3.820313 8.535156-8.535156v-8.53125c0-4.714844-3.820312-8.535157-8.535156-8.535157-4.710937 0-8.535156 3.820313-8.535156 8.535157v8.53125c0 4.714843 3.824219 8.535156 8.535156 8.535156zm0 0"/><path d="m315.730469 324.265625h-8.535157c-4.710937 0-8.53125 3.820313-8.53125 8.535156 0 4.710938 3.820313 8.53125 8.53125 8.53125h8.535157c4.710937 0 8.53125-3.820312 8.53125-8.53125 0-4.714843-3.820313-8.535156-8.53125-8.535156zm0 0"/><path d="m247.464844 93.867188c0 4.710937-3.820313 8.53125-8.535156 8.53125-4.710938 0-8.53125-3.820313-8.53125-8.53125 0-4.714844 3.820312-8.535157 8.53125-8.535157 4.714843 0 8.535156 3.820313 8.535156 8.535157zm0 0"/><path d="m324.261719 17.066406c0 4.714844-3.820313 8.535156-8.53125 8.535156-4.714844 0-8.535157-3.820312-8.535157-8.535156 0-4.710937 3.820313-8.53125 8.535157-8.53125 4.710937 0 8.53125 3.820313 8.53125 8.53125zm0 0"/><path d="m452.261719 281.601562c0 4.710938-3.820313 8.53125-8.53125 8.53125-4.714844 0-8.535157-3.820312-8.535157-8.53125 0-4.714843 3.820313-8.535156 8.535157-8.535156 4.710937 0 8.53125 3.820313 8.53125 8.535156zm0 0"/><path d="m392.53125 375.464844c0 4.714844-3.820312 8.535156-8.535156 8.535156-4.710938 0-8.53125-3.820312-8.53125-8.535156 0-4.710938 3.820312-8.53125 8.53125-8.53125 4.714844 0 8.535156 3.820312 8.535156 8.53125zm0 0"/><path d="m503.464844 401.066406c0 4.714844-3.820313 8.535156-8.535156 8.535156-4.710938 0-8.53125-3.820312-8.53125-8.535156 0-4.710937 3.820312-8.53125 8.53125-8.53125 4.714843 0 8.535156 3.820313 8.535156 8.53125zm0 0"/><path d="m119.464844 25.601562c0 4.710938-3.820313 8.53125-8.535156 8.53125-4.710938 0-8.53125-3.820312-8.53125-8.53125 0-4.714843 3.820312-8.535156 8.53125-8.535156 4.714843 0 8.535156 3.820313 8.535156 8.535156zm0 0"/></svg>