<svg height="512pt" viewBox="0 0 512.06726 512" width="512pt" xmlns="http://www.w3.org/2000/svg"><path d="m502.558594 278.328125c-3.667969 18.019531-17.5625 32.214844-35.5 36.265625-9.125 2.050781-18.652344 1.367188-27.390625-1.960938-1.519531-.597656-3-1.28125-4.4375-2.050781v154.625c.003906 7.445313-4.609375 14.117188-11.582031 16.738281-6.96875 2.621094-14.832032.644532-19.738282-4.960937-3.433594-3.835937-8.332031-6.039063-13.480468-6.058594-5.152344 0-10.058594 2.207031-13.484376 6.058594l-3.070312 3.5-14.761719 16.894531c-3.394531 3.902344-8.3125 6.140625-13.484375 6.140625s-10.089844-2.238281-13.480468-6.140625l-3.585938-4.097656-14.25-16.296875c-3.414062-3.867187-8.324219-6.082031-13.484375-6.082031-5.15625 0-10.066406 2.214844-13.480469 6.082031l-3.585937 4.09375-14.25 16.300781c-3.394531 3.902344-8.3125 6.140625-13.480469 6.140625-5.171875 0-10.089844-2.238281-13.484375-6.140625l-3.585937-4.097656-14.25-16.296875c-3.414063-3.867187-8.324219-6.082031-13.480469-6.082031-5.160157 0-10.070313 2.214844-13.484375 6.082031l-3.582032 4.09375-14.253906 16.300781c-3.390625 3.902344-8.308594 6.140625-13.480468 6.140625-5.171876 0-10.089844-2.238281-13.484376-6.140625l-3.582031-4.097656-14.25-16.296875c-3.414062-3.867187-8.324219-6.082031-13.484375-6.082031-5.15625 0-10.066406 2.214844-13.480468 6.082031-3.320313 3.855469-8.140626 6.09375-13.226563 6.144531-6.84375.03125-13.117187-3.800781-16.214844-9.898437-1.261719-2.484375-1.902343-5.238281-1.878906-8.023438v-154.625c-9.800781 5.054688-21.078125 6.476563-31.828125 4.011719-.777344-.160156-1.546875-.359375-2.304688-.597656-1.503906-.363282-2.988281-.820313-4.4375-1.363282-17.960937-7.105468-29.746093-24.476562-29.710937-43.792968.039063-19.316406 11.890625-36.640625 29.882813-43.675782 1.375-.609374 2.804687-1.09375 4.265624-1.449218 4.160157-1.203125 8.46875-1.808594 12.800782-1.792969 7.425781-.007813 14.746094 1.777344 21.332031 5.207031v-35.328125c-.605469-93.296875 69.328125-171.996093 162.050781-182.359375 4.777344-.511718 9.554688-.765625 14.417969-.851562 48-.730469 94.285156 17.824218 128.484375 51.511718 34.199219 33.683594 53.453125 79.683594 53.449219 127.6875v39.339844c1.363281-.683594 2.816406-1.367187 4.265625-1.964844 16.023437-6.261718 34.1875-3.257812 47.339844 7.828126 13.152343 11.089843 19.1875 28.484374 15.722656 45.335937zm0 0" fill="#607d8b"/><path d="m468.425781 278.328125c-3.203125 15.546875-14.011719 28.4375-28.757812 34.304687-1.453125.542969-2.933594 1-4.4375 1.363282-.757813.238281-1.527344.4375-2.304688.597656-10.75 2.464844-22.027343 1.042969-31.828125-4.011719v154.625c.023438 2.785157-.621094 5.539063-1.878906 8.023438-2.679688-1.515625-5.710938-2.3125-8.789062-2.304688-5.152344 0-10.058594 2.207031-13.484376 6.058594l-3.070312 3.5c-1.539062-.945313-2.921875-2.125-4.097656-3.5-3.421875-3.855469-8.328125-6.058594-13.480469-6.058594-5.15625 0-10.0625 2.203125-13.484375 6.058594l-14.25 16.296875-14.25-16.296875c-3.414062-3.867187-8.324219-6.082031-13.484375-6.082031-5.15625 0-10.066406 2.214844-13.480469 6.082031l-3.585937 4.09375-3.582031-4.09375c-3.414063-3.867187-8.324219-6.082031-13.484376-6.082031-5.15625 0-10.066406 2.214844-13.480468 6.082031l-14.253906 16.296875-14.25-16.296875c-3.414063-3.867187-8.324219-6.082031-13.480469-6.082031-5.160157 0-10.070313 2.214844-13.484375 6.082031l-3.582032 4.09375-3.585937-4.09375c-3.414063-3.867187-8.324219-6.082031-13.480469-6.082031-5.160156 0-10.070312 2.214844-13.484375 6.082031l-14.25 16.296875-14.25-16.296875c-3.414062-3.867187-8.324219-6.082031-13.484375-6.082031-5.15625 0-10.066406 2.214844-13.480468 6.082031-1.175782 1.375-2.558594 2.554687-4.097657 3.5l-3.070312-3.5c-5.601563-6.363281-14.894531-7.929687-22.273438-3.753906-1.261719-2.484375-1.902343-5.238281-1.878906-8.023438v-154.625c-9.800781 5.054688-21.078125 6.476563-31.828125 4.011719-.777344-.160156-1.546875-.359375-2.304688-.597656v-3.414063c-1.4375.769531-2.917968 1.453125-4.4375 2.050781-17.960937-7.105468-29.746093-24.476562-29.710937-43.792968.039063-19.316406 11.890625-36.640625 29.882813-43.675782 1.449218.597657 2.902343 1.28125 4.265624 1.964844v-3.414062c4.160157-1.203125 8.46875-1.808594 12.800782-1.792969 7.425781-.007813 14.746094 1.777344 21.332031 5.207031v-35.328125c-.605469-93.296875 69.328125-171.996093 162.050781-182.359375 91.984375 8.699219 162.25 85.953125 162.21875 178.347656v39.339844c6.585938-3.429687 13.90625-5.214844 21.332032-5.207031 4.328124-.015625 8.640624.589844 12.800781 1.792969 1.460937.355468 2.890625.839844 4.265625 1.449218 21.335937 8.273438 33.570312 30.753907 28.929687 53.164063zm0 0" fill="#cfd8dc"/><g fill="#6a1b9a"><path d="m145.097656 179.445312v25.410157c-.117187 9.308593 7.335938 16.949219 16.648438 17.066406h68.898437c3.242188-.054687 6.171875-1.945313 7.5625-4.875 1.386719-2.929687.996094-6.394531-1.011719-8.941406-10.71875-14.359375-34.535156-35.035157-83.625-37.195313-2.265624-.027344-4.449218.863282-6.042968 2.472656-1.597656 1.609376-2.476563 3.792969-2.429688 6.0625zm0 0"/><path d="m366.960938 179.445312v25.410157c.117187 9.308593-7.335938 16.949219-16.648438 17.066406h-68.894531c-3.246094-.054687-6.175781-1.945313-7.5625-4.875-1.390625-2.929687-1-6.394531 1.007812-8.941406 10.71875-14.359375 34.535157-35.035157 83.625-37.195313 2.265625-.027344 4.449219.863282 6.042969 2.472656 1.597656 1.609376 2.476562 3.792969 2.429688 6.0625zm0 0"/><path d="m288.457031 341.390625-32.425781 42.664063-32.429688-42.664063-32.425781 42.664063c-56.710937-25.597657-32.425781-119.464844-32.425781-119.464844l32.425781 42.664062 32.425781-42.664062 32.429688 42.664062 32.425781-42.664062 32.425781 42.664062 32.425782-42.664062s24.3125 93.867187-32.425782 119.464844zm0 0"/></g><path d="m85.421875 489.929688c10.296875 3.925781 21.953125 1 29.167969-7.332032 1.8125-1.96875 4.363281-3.089844 7.039062-3.089844 2.675782 0 5.230469 1.121094 7.039063 3.089844l17.921875 20.429688c5.023437 5.722656 12.265625 9.003906 19.882812 9.003906 7.613282 0 14.859375-3.28125 19.882813-9.003906l17.917969-20.4375c1.8125-1.96875 4.367187-3.089844 7.042968-3.089844 2.671875 0 5.226563 1.121094 7.039063 3.089844l17.917969 20.429687c5.023437 5.722657 12.269531 9.003907 19.882812 9.003907 7.617188 0 14.859375-3.28125 19.882812-9.003907l17.878907-20.4375c1.8125-1.96875 4.363281-3.089843 7.039062-3.089843s5.230469 1.121093 7.039063 3.089843l17.878906 20.429688c5.023438 5.722656 12.269531 9.003906 19.882812 9.003906 7.613282 0 14.859376-3.28125 19.882813-9.003906l17.875-20.4375c1.8125-1.96875 4.367187-3.089844 7.042969-3.089844 2.675781 0 5.226562 1.121094 7.039062 3.089844 7.28125 8.136719 18.8125 10.964843 29.03125 7.117187 10.21875-3.84375 17.023438-13.574218 17.132813-24.492187v-142.371094c22.3125 5.308594 45.59375-3.664063 58.570312-22.574219 12.980469-18.910156 12.980469-43.859375 0-62.769531-12.976562-18.914063-36.257812-27.886719-58.570312-22.578125v-27.117188c.007812-50.292968-20.167969-98.488281-56-133.777343-35.832031-35.292969-84.328125-54.730469-134.617188-53.9570315-101.921875 1.5546875-184.847656 87.5703125-184.847656 191.7695315v23.082031c-20.59375-4.925781-42.195313 2.332031-55.636719 18.691406-15.152344 18.386719-16.867187 44.398438-4.261718 64.617188 12.609374 20.214844 36.71875 30.125 59.898437 24.613281v142.371094c-.0625 11.023437 6.78125 20.910156 17.125 24.730469zm-38.5625-183.628907c-12.96875-2.980469-23.46875-12.464843-27.75-25.066406-4.285156-12.597656-1.738281-26.515625 6.726563-36.785156 11.566406-13.699219 31.003906-17.71875 47.058593-9.726563 2.648438 1.375 5.824219 1.269532 8.375-.285156 2.546875-1.554688 4.101563-4.324219 4.09375-7.308594v-35.304687c0-94.921875 75.382813-173.285157 168.039063-174.703125 45.714844-.703125 89.804687 16.96875 122.382812 49.050781 32.574219 32.082031 50.917969 75.894531 50.910156 121.617187v39.339844c0 2.980469 1.558594 5.742188 4.105469 7.289063s5.71875 1.652343 8.363281.277343c16.058594-7.996093 35.503907-3.964843 47.058594 9.753907 11.578125 14.03125 11.707032 34.261719.308594 48.433593-11.394531 14.175782-31.179688 18.398438-47.367188 10.105469-2.648437-1.375-5.824218-1.265625-8.375.285157-2.546874 1.554687-4.101562 4.324218-4.09375 7.308593v154.617188c-.042968 3.875-2.460937 7.324219-6.085937 8.683593-3.625 1.363282-7.714844.355469-10.296875-2.53125-5.023438-5.722656-12.269531-9.003906-19.882812-9.003906-7.613282 0-14.859376 3.28125-19.882813 9.003906l-17.921875 20.480469c-1.808594 1.972657-4.359375 3.09375-7.035156 3.09375-2.675782 0-5.226563-1.121093-7.035156-3.09375l-17.875-20.480469c-5.023438-5.722656-12.269532-9.003906-19.882813-9.003906-7.617187 0-14.863281 3.28125-19.882813 9.003906l-17.921874 20.480469c-1.808594 1.972657-4.359376 3.09375-7.035157 3.09375s-5.226562-1.121093-7.035156-3.09375l-17.921875-20.480469c-5.023438-5.722656-12.265625-9.003906-19.882812-9.003906-7.613282 0-14.859376 3.28125-19.882813 9.003906l-17.917969 20.480469c-1.808594 1.972657-4.363281 3.09375-7.035156 3.09375-2.675781 0-5.226562-1.121093-7.035156-3.09375l-17.921875-20.480469c-5.023438-5.722656-12.269531-9.003906-19.882813-9.003906-7.613281 0-14.859375 3.28125-19.882812 9.003906-2.605469 2.75-6.605469 3.664063-10.148438 2.320313-3.539062-1.34375-5.925781-4.6875-6.046875-8.472656v-154.617188c.007813-2.984375-1.546875-5.753906-4.09375-7.308593-2.550781-1.550782-5.726562-1.660157-8.375-.285157-8.011719 4.15625-17.238281 5.328125-26.035156 3.3125zm0 0"/><path d="m161.746094 230.457031h68.886718c6.371094.003907 12.191407-3.605469 15.019532-9.3125 2.960937-5.859375 2.332031-12.894531-1.621094-18.140625-12.902344-17.289062-38.996094-38.398437-90.050781-40.628906-4.503907-.234375-8.898438 1.433594-12.109375 4.601562-3.386719 3.261719-5.304688 7.761719-5.308594 12.46875v25.410157c-.097656 14.015625 11.164062 25.46875 25.183594 25.601562zm-8.117188-51.011719c44.101563 2.046876 66.066406 19.480469 77.003906 33.945313h-68.886718c-4.59375-.128906-8.222656-3.941406-8.117188-8.535156zm0 0"/><path d="m281.425781 230.457031h68.886719c14.019531-.132812 25.28125-11.585937 25.183594-25.601562v-25.410157c-.003906-4.707031-1.921875-9.207031-5.308594-12.46875-3.226562-3.140624-7.609375-4.804687-12.109375-4.601562-51.054687 2.253906-77.148437 23.339844-90.050781 40.628906-3.953125 5.246094-4.582032 12.28125-1.621094 18.140625 2.828125 5.707031 8.648438 9.316407 15.019531 9.3125zm76.960938-51.203125c.03125.042969.046875.09375.042969.148438v25.453125c.105468 4.59375-3.523438 8.40625-8.117188 8.535156l-68.613281-.179687c10.699219-14.328126 32.757812-31.820313 76.730469-33.914063zm0 0"/><path d="m229.574219 258.667969c-.230469-.308594-.488281-.59375-.765625-.855469-.160156-.085938-.328125-.167969-.496094-.238281-.5-.308594-1.027344-.566407-1.578125-.765625-.472656-.210938-.964844-.375-1.46875-.496094-1.070313-.125-2.152344-.125-3.222656 0-.523438.117188-1.035157.289062-1.519531.511719-.539063.191406-1.054688.441406-1.539063.742187-.160156.109375-.347656.128906-.5.246094-.277344.265625-.535156.550781-.769531.855469-.300782.230469-.585938.484375-.851563.757812l-25.601562 33.722657-25.601563-33.722657c-1.976562-2.601562-5.269531-3.84375-8.472656-3.199219-3.207031.644532-5.761719 3.066407-6.578125 6.230469-1.066406 4.113281-25.394531 101.144531 37.152344 129.382813 3.628906 1.636718 7.902343.546875 10.308593-2.621094l25.601563-33.722656 25.597656 33.722656c1.679688 2.019531 4.167969 3.1875 6.792969 3.1875s5.117188-1.167969 6.792969-3.1875l25.601562-33.722656 25.597657 33.722656c.050781.058594.121093.078125.171874.136719.722657.902343 1.628907 1.640625 2.652344 2.175781.210938.109375.421875.207031.640625.289062 1.058594.484376 2.203125.746094 3.363281.769532 1.054688-.027344 2.097657-.253906 3.070313-.667969.128906-.050781.25 0 .367187-.074219 62.550782-28.238281 38.222657-125.269531 37.15625-129.382812-.132812-.335938-.289062-.660156-.46875-.972656-.199218-.550782-.457031-1.078126-.769531-1.570313-.332031-.484375-.71875-.925781-1.152343-1.316406-.195313-.296875-.417969-.578125-.65625-.84375-.136719-.101563-.300782-.117188-.445313-.210938-.507813-.324219-1.054687-.589843-1.628906-.785156-.453125-.210937-.925781-.378906-1.40625-.503906-.539063-.082031-1.085938-.109375-1.632813-.085938-.570312-.03125-1.140625 0-1.707031.09375-.164063-.011719-.335937-.011719-.5 0-.347656.136719-.679687.296875-1 .484375-.539063.195313-1.050781.441406-1.535156.742188-.480469.335937-.921875.726562-1.316407 1.164062-.289062.210938-.558593.449219-.808593.707032l-25.601563 33.722656-25.597656-33.722656c-.269531-.277344-.554688-.53125-.855469-.769532-.230469-.300781-.484375-.585937-.757812-.851562-.160157-.089844-.328125-.167969-.496094-.238282-.5-.3125-1.03125-.570312-1.585937-.769531-.472657-.207031-.960938-.375-1.460938-.496093-1.070312-.125-2.152344-.125-3.226562 0-.519532.121093-1.03125.289062-1.515626.511718-.539062.195313-1.058593.445313-1.546874.742188-.152344.113281-.339844.128906-.496094.25-.277344.261718-.535156.546875-.765625.851562-.300781.234375-.585938.488282-.855469.761719l-25.597656 33.722656-25.660156-33.613281c-.265626-.285156-.550782-.554688-.855469-.800781zm26.457031 57.121093c2.683594 0 5.214844-1.265624 6.824219-3.414062l25.601562-33.722656 25.597657 33.722656c1.613281 2.125 4.128906 3.375 6.796874 3.375 2.667969 0 5.183594-1.25 6.796876-3.375l20.667968-27.210938c3.285156 25.242188 4.171875 69.425782-25.09375 87.890626l-27.992187-36.785157c-.265625-.273437-.550781-.527343-.851563-.761719-.238281-.300781-.492187-.585937-.769531-.851562-.152344-.121094-.339844-.136719-.496094-.238281-.496093-.3125-1.023437-.566407-1.578125-.761719-.960937-.476562-2.035156-.683594-3.105468-.59375-.53125-.023438-1.066407.007812-1.59375.09375-.519532.117188-1.023438.289062-1.503907.511719-.542969.191406-1.0625.441406-1.550781.742187-.15625.109375-.34375.125-.496094.246094-.28125.261719-.535156.546875-.769531.851562-.300781.234376-.585937.488282-.851563.761719l-25.601562 33.722657-25.632812-33.722657c-1.679688-2.019531-4.171876-3.1875-6.796876-3.1875s-5.117187 1.167969-6.796874 3.1875l-28.015626 36.878907c-29.183593-18.386719-28.304687-62.625-25.042968-87.890626l20.648437 27.195313c1.613281 2.125 4.128907 3.375 6.796875 3.375 2.667969 0 5.183594-1.25 6.796875-3.375l25.601563-33.722656 25.597656 33.722656c1.625 2.113281 4.144531 3.347656 6.8125 3.335937zm0 0"/></svg>