<svg height="512pt" viewBox="0 0 512 512.12026" width="512pt" xmlns="http://www.w3.org/2000/svg"><path d="m418.851562 172.492188c-13.054687-5.203126-34.558593-9.640626-51.199218 7l-87.894532 88.320312-12.03125 12.03125-47.613281 47.785156-11.949219 12.03125-56.234374 56.40625-11.859376 11.945313h-.085937l-87.636719 88.066406c-10.03125 9.980469-26.238281 9.980469-36.269531 0l50.433594-58.964844 51.199219-51.199219 12.117187-12.121093 68.265625-68.265625 47.617188-47.613282 12.117187-12.121093 51.199219-51.199219 66.730468-58.195312c24.320313-.769532 40.109376 17.152343 48.214844 29.78125 1.019532 1.550781.917969 3.585937-.253906 5.027343-1.167969 1.441407-3.136719 1.960938-4.867188 1.285157zm0 0" fill="#4e342e"/><path d="m375.757812 136.398438-62.460937 62.464843-12.117187 12.117188-39.085938 39.082031-59.730469 59.730469-12.117187 12.121093-56.152344 56.148438-118.015625 118.015625c-4.820313-4.785156-7.527344-11.300781-7.507813-18.089844-.011718-6.777343 2.65625-13.277343 7.425782-18.09375l36.691406-36.777343 11.859375-11.945313c0-.046875.039063-.085937.085937-.085937l39.167969-39.253907 11.863281-11.945312 167.082032-167.679688 11.691406-11.777343 37.035156-37.121094c12.609375-13.585938 15.746094-33.449219 7.933594-50.261719-.574219-1.691406-.03125-3.566406 1.359375-4.691406 1.390625-1.121094 3.335937-1.261719 4.871094-.34375 12.628906 8.023437 30.890625 23.894531 30.121093 48.386719zm0 0" fill="#795548"/><path d="m483.792969 123.683594c-12.628907 12.660156-29.777344 19.777344-47.660157 19.777344-17.882812 0-35.03125-7.117188-47.660156-19.777344-3.605468-3.585938-6.757812-7.597656-9.386718-11.949219-16.695313-26.574219-12.796876-61.167969 9.394531-83.359375 22.195312-22.195312 56.789062-26.09375 83.363281-9.394531 4.351562 2.628906 8.363281 5.78125 11.949219 9.386719 26.277343 26.335937 26.277343 68.976562 0 95.316406zm0 0" fill="#00838f"/><path d="m462.457031 102.347656c-22.164062 22.265625-56.808593 26.164063-83.371093 9.386719-16.695313-26.574219-12.796876-61.167969 9.394531-83.359375 22.195312-22.195312 56.789062-26.09375 83.363281-9.394531 16.703125 26.574219 12.808594 61.171875-9.386719 83.367187zm0 0" fill="#00bcd4"/><path d="m10.039062 502.128906c6.386719 6.417969 15.074219 10.015625 24.132813 9.992188 9.070313.019531 17.773437-3.597656 24.15625-10.042969l315.316406-316.589844c12.890625-12.882812 29.976563-9.898437 42.023438-5.117187 5.15625 2.007812 11.015625.476562 14.53125-3.789063 3.515625-4.269531 3.890625-10.3125.933593-14.984375-2.460937-3.816406-5.199218-7.449218-8.191406-10.863281 32.648438 5.777344 65.269532-10.292969 80.585938-39.695313 15.320312-29.40625 9.792968-65.347656-13.652344-88.792968-23.441406-23.445313-59.386719-28.96875-88.789062-13.652344-29.40625 15.320312-45.472657 47.941406-39.695313 80.589844-3.515625-3.074219-7.25-5.878906-11.179687-8.398438-4.644532-2.9375-10.644532-2.585937-14.910157.875-4.269531 3.460938-5.851562 9.257813-3.933593 14.410156 6.621093 13.65625 4.257812 29.96875-5.972657 41.179688l-315.40625 316.648438c-13.257812 13.351562-13.234375 34.90625.050781 48.230468zm384.449219-467.703125c16.839844-16.847656 42.167969-21.894531 64.171875-12.78125 22.007813 9.109375 36.359375 30.582031 36.359375 54.402344 0 23.816406-14.351562 45.289063-36.359375 54.398437-22.003906 9.113282-47.332031 4.070313-64.171875-12.777343-11.089843-11.011719-17.332031-25.992188-17.332031-41.621094s6.242188-30.613281 17.332031-41.621094zm-57.027343 114.890625c12.261718-12.214844 17.355468-29.886718 13.476562-46.753906 10.253906 8.125 16.257812 20.476562 16.304688 33.5625-.066407 2.351562.835937 4.625 2.5 6.289062 1.640624 1.699219 3.933593 2.609376 6.289062 2.5 12.785156.039063 24.878906 5.789063 32.984375 15.675782-16.972656-4.363282-34.988281.53125-47.421875 12.875l-87.894531 88.246094-11.621094-11.625c-3.347656-3.234376-8.671875-3.1875-11.960937.105468-3.292969 3.292969-3.339844 8.613282-.105469 11.960938l11.648437 11.648437-47.574218 47.785157-11.742188-11.738282c-3.347656-3.234375-8.667969-3.1875-11.960938.101563-3.292968 3.292969-3.335937 8.613281-.105468 11.964843l11.761718 11.765626-56.089843 56.320312-24.140625-24.175781 166.800781-167.464844 12.59375 12.59375c3.347656 3.234375 8.671875 3.1875 11.960937-.105469 3.292969-3.289062 3.339844-8.613281.105469-11.960937l-12.613281-12.613281zm-315.382813 316.621094 36.582031-36.691406 12.144532 12.140625c3.347656 3.234375 8.667968 3.1875 11.960937-.101563 3.292969-3.292968 3.339844-8.617187.105469-11.964844l-12.160156-12.203124 39.054687-39.199219 24.132813 24.121093-87.636719 87.996094c-3.195313 3.226563-7.550781 5.035156-12.089844 5.019532-6.902344 0-13.121094-4.152344-15.769531-10.523438-2.644532-6.371094-1.195313-13.707031 3.675781-18.59375zm0 0"/><path d="m460.835938 42.785156c0 4.714844-3.820313 8.535156-8.53125 8.535156-4.714844 0-8.535157-3.820312-8.535157-8.535156 0-4.710937 3.820313-8.53125 8.535157-8.53125 4.710937 0 8.53125 3.820313 8.53125 8.53125zm0 0"/><path d="m290.171875 119.585938c0 4.714843-3.820313 8.535156-8.535156 8.535156-4.710938 0-8.535157-3.820313-8.535157-8.535156 0-4.710938 3.824219-8.53125 8.535157-8.53125 4.714843 0 8.535156 3.820312 8.535156 8.53125zm0 0"/><path d="m494.96875 170.785156c0 4.714844-3.820312 8.535156-8.53125 8.535156-4.714844 0-8.535156-3.820312-8.535156-8.535156 0-4.710937 3.820312-8.53125 8.535156-8.53125 4.710938 0 8.53125 3.820313 8.53125 8.53125zm0 0"/><path d="m418.171875 221.988281c0 4.710938-3.820313 8.53125-8.535156 8.53125-4.710938 0-8.535157-3.820312-8.535157-8.53125 0-4.714843 3.824219-8.535156 8.535157-8.535156 4.714843 0 8.535156 3.820313 8.535156 8.535156zm0 0"/><path d="m196.304688 34.253906c0 4.710938-3.820313 8.53125-8.535157 8.53125-4.710937 0-8.53125-3.820312-8.53125-8.53125 0-4.714844 3.820313-8.535156 8.53125-8.535156 4.714844 0 8.535157 3.820312 8.535157 8.535156zm0 0"/><path d="m409.636719 111.054688c3.074219-.003907 5.90625-1.660157 7.417969-4.335938 1.511718-2.675781 1.46875-5.957031-.113282-8.59375-7.464844-12.449219-9.96875-22.636719-7.21875-29.472656 2.097656-4.375 5.9375-7.667969 10.582032-9.070313 4.542968-1.1875 7.273437-5.816406 6.113281-10.367187-1.15625-4.546875-5.773438-7.308594-10.328125-6.171875-9.824219 2.695312-17.925782 9.644531-22.085938 18.945312-5.050781 12.203125-2.261718 27.304688 8.3125 44.925781 1.542969 2.570313 4.324219 4.140626 7.320313 4.140626zm0 0"/><path d="m273.101562.121094c-4.710937 0-8.53125 3.820312-8.53125 8.53125v17.066406c0 4.714844 3.820313 8.535156 8.53125 8.535156 4.714844 0 8.535157-3.820312 8.535157-8.535156v-17.066406c0-4.710938-3.820313-8.53125-8.535157-8.53125zm0 0"/><path d="m256.035156 34.253906h-17.066406c-4.710938 0-8.53125 3.820313-8.53125 8.53125 0 4.714844 3.820312 8.535156 8.53125 8.535156h17.066406c4.714844 0 8.535156-3.820312 8.535156-8.535156 0-4.710937-3.820312-8.53125-8.535156-8.53125zm0 0"/><path d="m307.238281 51.320312c4.710938 0 8.53125-3.820312 8.53125-8.535156 0-4.710937-3.820312-8.53125-8.53125-8.53125h-17.066406c-4.714844 0-8.535156 3.820313-8.535156 8.53125 0 4.714844 3.820312 8.535156 8.535156 8.535156zm0 0"/><path d="m264.570312 76.921875c0 4.710937 3.820313 8.53125 8.53125 8.53125 4.714844 0 8.535157-3.820313 8.535157-8.53125v-17.070313c0-4.710937-3.820313-8.53125-8.535157-8.53125-4.710937 0-8.53125 3.820313-8.53125 8.53125zm0 0"/><path d="m477.902344 221.988281c0-4.714843-3.820313-8.535156-8.53125-8.535156-4.714844 0-8.535156 3.820313-8.535156 8.535156v17.066407c0 4.710937 3.820312 8.53125 8.535156 8.53125 4.710937 0 8.53125-3.820313 8.53125-8.53125zm0 0"/><path d="m452.304688 247.585938h-17.066407c-4.714843 0-8.535156 3.820312-8.535156 8.535156 0 4.710937 3.820313 8.53125 8.535156 8.53125h17.066407c4.710937 0 8.53125-3.820313 8.53125-8.53125 0-4.714844-3.820313-8.535156-8.53125-8.535156zm0 0"/><path d="m503.503906 247.585938h-17.066406c-4.714844 0-8.535156 3.820312-8.535156 8.535156 0 4.710937 3.820312 8.53125 8.535156 8.53125h17.066406c4.710938 0 8.53125-3.820313 8.53125-8.53125 0-4.714844-3.820312-8.535156-8.53125-8.535156zm0 0"/><path d="m469.371094 298.785156c4.710937 0 8.53125-3.820312 8.53125-8.53125v-17.066406c0-4.714844-3.820313-8.535156-8.53125-8.535156-4.714844 0-8.535156 3.820312-8.535156 8.535156v17.066406c0 4.710938 3.820312 8.53125 8.535156 8.53125zm0 0"/><path d="m196.304688 119.585938c-4.714844 0-8.535157 3.820312-8.535157 8.535156v17.066406c0 4.710938 3.820313 8.53125 8.535157 8.53125 4.710937 0 8.53125-3.820312 8.53125-8.53125v-17.066406c0-4.714844-3.820313-8.535156-8.53125-8.535156zm0 0"/><path d="m162.171875 153.71875c-4.714844 0-8.535156 3.820312-8.535156 8.535156 0 4.710938 3.820312 8.53125 8.535156 8.53125h17.066406c4.710938 0 8.53125-3.820312 8.53125-8.53125 0-4.714844-3.820312-8.535156-8.53125-8.535156zm0 0"/><path d="m213.371094 153.71875c-4.714844 0-8.535156 3.820312-8.535156 8.535156 0 4.710938 3.820312 8.53125 8.535156 8.53125h17.066406c4.710938 0 8.53125-3.820312 8.53125-8.53125 0-4.714844-3.820312-8.535156-8.53125-8.535156zm0 0"/><path d="m196.304688 170.785156c-4.714844 0-8.535157 3.820313-8.535157 8.535156v17.066407c0 4.714843 3.820313 8.535156 8.535157 8.535156 4.710937 0 8.53125-3.820313 8.53125-8.535156v-17.066407c0-4.714843-3.820313-8.535156-8.53125-8.535156zm0 0"/></svg>