<svg height="511pt" viewBox="0 0 511.98874 511" width="511pt" xmlns="http://www.w3.org/2000/svg"><path d="m503.460938 34.304688c-.003907 6.785156-2.707032 13.292968-7.507813 18.089843l-44.03125 44.117188-5.71875 5.71875-80.808594 80.722656-11.863281 11.949219-141.480469 141.480468c0-.082031 0-.082031-.085937-.082031l-18.089844-18.007812 2.898438-11.433594 69.546874-69.546875 43.351563-43.347656 12.117187-12.121094 115.199219-115.199219 58.964844-50.429687c4.800781 4.796875 7.503906 11.300781 7.507813 18.089844zm0 0" fill="#4e342e"/><path d="m495.953125 16.214844-100.949219 100.949218-47.617187 47.613282-12.117188 12.117187-13.480469 13.484375-12.117187 12.117188-43.351563 43.347656-12.117187 12.121094-23.808594 23.804687-33.621093 33.621094-2.898438 2.902344-18.09375-18.089844 63.574219-63.488281 5.71875-5.71875 46.589843-46.675782 11.949219-11.945312 73.386719-73.386719 11.945312-11.949219 20.992188-20.90625c0-.046874.039062-.085937.085938-.085937l39.851562-39.847656c0-.046875.035156-.085938.082031-.085938l9.816407-9.898437c9.992187-9.984375 26.183593-9.984375 36.179687 0zm0 0" fill="#795548"/><path d="m220.070312 392.789062c-3.925781 19.199219-16.894531 35.074219-27.902343 50.6875-13.058594 18.519532-25.34375 37.546876-37.890625 56.320313-1.40625 2.140625-3.699219 3.535156-6.246094 3.796875-2.546875.265625-5.078125-.625-6.894531-2.429688l-130.132813-130.132812c-1.804687-1.820312-2.695312-4.347656-2.433594-6.894531.265626-2.546875 1.660157-4.839844 3.800782-6.25 16.980468-11.261719 33.875-22.695313 50.515625-34.472657 15.273437-10.753906 30.207031-23.722656 48.382812-29.269531 8.441407-2.523437 17.21875-3.761719 26.027344-3.667969h.085937c3.769532.09375 7.53125.410157 11.265626.9375 9.476562 1.367188 18.652343 4.339844 27.132812 8.789063 3.273438 1.628906 6.410156 3.511719 9.386719 5.632813 11.375 7.710937 20.597656 18.195312 26.796875 30.464843.085937 0 .085937 0 .085937.082031 9.015625 17.339844 11.847657 37.238282 8.019531 56.40625zm0 0" fill="#ff9801"/><path d="m198.738281 371.457031c-3.925781 19.199219-16.898437 35.070313-27.90625 50.6875-13.054687 18.515625-25.34375 37.546875-37.886719 56.320313-1.40625 2.136718-3.699218 3.53125-6.246093 3.796875s-5.078125-.628907-6.894531-2.433594l-95.234376-95.230469-13.566406-13.566406c-1.804687-1.820312-2.695312-4.347656-2.433594-6.894531.265626-2.546875 1.660157-4.839844 3.800782-6.25 16.980468-11.261719 33.875-22.695313 50.515625-34.472657 15.273437-10.753906 30.207031-23.722656 48.382812-29.269531 8.441407-2.523437 17.21875-3.761719 26.027344-3.667969h.085937c3.769532.09375 7.53125.410157 11.265626.9375 9.476562 1.367188 18.652343 4.339844 27.132812 8.789063 3.273438 1.628906 6.410156 3.511719 9.386719 5.632813 2.03125 2.910156 3.859375 5.960937 5.460937 9.128906.085938 0 .085938 0 .085938.085937 9.019531 17.339844 11.847656 37.238281 8.023437 56.40625zm0 0" fill="#fec108"/><path d="m453.730469 10.171875-279.84375 279.832031c-20.539063-8.988281-43.601563-10.398437-65.082031-3.984375-15.285157 5.554688-29.507813 13.6875-42.042969 24.046875-2.9375 2.152344-5.835938 4.269532-8.773438 6.375-17.03125 12.03125-34.285156 23.628906-50.390625 34.363282-4.253906 2.835937-7.011718 7.429687-7.5156248 12.519531-.5039062 5.085937 1.3007808 10.132812 4.9140628 13.746093l28.835937 28.84375 72.394531 72.398438 28.84375 28.839844c3.191407 3.214844 7.535157 5.019531 12.066407 5.019531.570312 0 1.140625-.027344 1.707031-.085937 5.089844-.496094 9.6875-3.257813 12.519531-7.519532l9.921875-14.964844c9.003906-13.613281 18.304688-27.675781 27.828125-41.175781l4.496094-6.296875c11.613281-13.929687 20.078125-30.207031 24.808594-47.71875 3.730469-18.945312 1.585937-38.574218-6.144531-56.269531l279.722656-279.703125c13.324218-13.328125 13.324218-34.9375 0-48.265625-13.503906-12.902344-34.765625-12.902344-48.265625 0zm-94.300781 166.699219-12.066407-12.066406c-3.347656-3.234376-8.671875-3.1875-11.964843.105468-3.289063 3.289063-3.335938 8.613282-.101563 11.960938l12.066406 12.066406-69 69-24.132812-24.132812 43.398437-43.398438 12.066406 12.066406c3.347657 3.230469 8.671876 3.1875 11.964844-.105468 3.289063-3.292969 3.335938-8.613282.101563-11.960938l-12.066407-12.066406 73.269532-73.269532 12.066406 12.066407c3.347656 3.234375 8.667969 3.1875 11.960938-.101563 3.292968-3.292968 3.335937-8.617187.105468-11.964844l-12.066406-12.066406 17.800781-17.800781 24.128907 24.132813zm-147.746094 214.1875c-4.375 15.070312-11.84375 29.066406-21.921875 41.09375l-4.609375 6.4375c-9.667969 13.703125-19.039063 27.886718-28.109375 41.589844l-9.871094 14.925781-22.8125-22.8125 42.242187-42.238281c3.234376-3.347657 3.1875-8.671876-.105468-11.960938-3.289063-3.292969-8.613282-3.339844-11.960938-.105469l-42.242187 42.242188-12.082031-12.058594 12.066406-12.074219c2.21875-2.144531 3.109375-5.316406 2.328125-8.300781s-3.113281-5.3125-6.09375-6.09375c-2.984375-.78125-6.15625.109375-8.300781 2.328125l-12.066407 12.066406-12.066406-12.074218 48.265625-48.273438c3.152344-3.363281 3.066406-8.617188-.191406-11.875-3.261719-3.257812-8.515625-3.339844-11.875-.183594l-48.28125 48.265625-12.058594-12.066406 48.273438-48.273437c3.234374-3.347657 3.1875-8.671876-.101563-11.964844-3.292969-3.289063-8.617187-3.335938-11.964844-.101563l-48.273437 48.273438-22.808594-22.820313c16.214844-10.800781 33.585938-22.476562 50.773438-34.59375 3.019531-2.132812 6.023437-4.34375 9.046874-6.570312 11.011719-9.179688 23.496094-16.4375 36.921876-21.46875 6.410156-1.945313 13.050781-3.027344 19.746093-3.21875-.683593 8.269531 1.484375 26.984375 27 52.5 3.347657 3.230468 8.671875 3.1875 11.960938-.105469 3.292969-3.292969 3.339843-8.613281.105469-11.960937-21.65625-21.667969-22.324219-35.484376-22.074219-38.980469 20.238281 3.625 38.148437 15.28125 49.664062 32.316406s15.652344 38.003906 11.476563 58.136719zm-8.894532-81.683594c-4.101562-4.007812-8.570312-7.617188-13.351562-10.785156l52.726562-52.71875 24.132813 24.132812-22.066406 22.066406-7.800781-7.800781c-3.347657-3.230469-8.671876-3.1875-11.960938.105469-3.292969 3.292969-3.339844 8.613281-.105469 11.960938l7.800781 7.800781-18.578124 18.59375c-3.175782-4.777344-6.789063-9.246094-10.796876-13.355469zm287.140626-263.003906-40.902344 40.898437-24.132813-24.132812 22.070313-22.066407 7.796875 7.800782c3.347656 3.234375 8.671875 3.1875 11.964843-.105469 3.289063-3.289063 3.335938-8.613281.101563-11.960937l-7.796875-7.800782 6.765625-6.765625c6.75-6.449219 17.378906-6.449219 24.132813 0 6.660156 6.664063 6.660156 17.46875 0 24.132813zm0 0"/><path d="m142.453125 381.78125-18.109375 18.109375c-2.21875 2.140625-3.109375 5.3125-2.328125 8.296875s3.113281 5.3125 6.09375 6.09375c2.984375.78125 6.15625-.109375 8.300781-2.324219l18.109375-18.109375c3.230469-3.347656 3.1875-8.671875-.105469-11.960937-3.292968-3.292969-8.613281-3.339844-11.960937-.105469zm0 0"/><path d="m349.863281 443.90625c0 4.710938-3.820312 8.53125-8.535156 8.53125-4.710937 0-8.53125-3.820312-8.53125-8.53125 0-4.714844 3.820313-8.535156 8.53125-8.535156 4.714844 0 8.535156 3.820312 8.535156 8.535156zm0 0"/><path d="m264.53125 460.972656c0 4.710938-3.824219 8.53125-8.535156 8.53125-4.714844 0-8.535156-3.820312-8.535156-8.53125 0-4.714844 3.820312-8.535156 8.535156-8.535156 4.710937 0 8.535156 3.820312 8.535156 8.535156zm0 0"/><path d="m298.664062 409.769531c4.710938 0 8.53125-3.820312 8.53125-8.53125v-8.535156c0-4.710937-3.820312-8.53125-8.53125-8.53125-4.714843 0-8.535156 3.820313-8.535156 8.53125v8.535156c0 4.710938 3.820313 8.53125 8.535156 8.53125zm0 0"/><path d="m324.261719 409.769531h-8.53125c-4.714844 0-8.535157 3.820313-8.535157 8.535157 0 4.710937 3.820313 8.53125 8.535157 8.53125h8.53125c4.714843 0 8.535156-3.820313 8.535156-8.53125 0-4.714844-3.820313-8.535157-8.535156-8.535157zm0 0"/><path d="m298.664062 426.835938c-4.714843 0-8.535156 3.820312-8.535156 8.535156v8.535156c0 4.710938 3.820313 8.53125 8.535156 8.53125 4.710938 0 8.53125-3.820312 8.53125-8.53125v-8.535156c0-4.714844-3.820312-8.535156-8.53125-8.535156zm0 0"/><path d="m281.597656 409.769531h-8.535156c-4.710938 0-8.53125 3.820313-8.53125 8.535157 0 4.710937 3.820312 8.53125 8.53125 8.53125h8.535156c4.710938 0 8.53125-3.820313 8.53125-8.53125 0-4.714844-3.820312-8.535157-8.53125-8.535157zm0 0"/><path d="m136.53125 187.90625c0 4.710938-3.824219 8.53125-8.535156 8.53125-4.714844 0-8.535156-3.820312-8.535156-8.53125 0-4.714844 3.820312-8.535156 8.535156-8.535156 4.710937 0 8.535156 3.820312 8.535156 8.535156zm0 0"/><path d="m51.195312 196.4375c0 4.714844-3.820312 8.535156-8.53125 8.535156-4.714843 0-8.535156-3.820312-8.535156-8.535156 0-4.710938 3.820313-8.53125 8.535156-8.53125 4.710938 0 8.53125 3.820312 8.53125 8.53125zm0 0"/><path d="m110.929688 213.503906c0-4.710937-3.820313-8.53125-8.535157-8.53125-4.710937 0-8.53125 3.820313-8.53125 8.53125v8.535156c0 4.710938 3.820313 8.53125 8.53125 8.53125 4.714844 0 8.535157-3.820312 8.535157-8.53125zm0 0"/><path d="m119.460938 247.636719h8.535156c4.710937 0 8.535156-3.820313 8.535156-8.53125 0-4.714844-3.824219-8.535157-8.535156-8.535157h-8.535156c-4.710938 0-8.53125 3.820313-8.53125 8.535157 0 4.710937 3.820312 8.53125 8.53125 8.53125zm0 0"/><path d="m102.394531 247.636719c-4.710937 0-8.53125 3.820312-8.53125 8.535156v8.53125c0 4.714844 3.820313 8.535156 8.53125 8.535156 4.714844 0 8.535157-3.820312 8.535157-8.535156v-8.53125c0-4.714844-3.820313-8.535156-8.535157-8.535156zm0 0"/><path d="m76.796875 230.570312c-4.714844 0-8.535156 3.820313-8.535156 8.535157 0 4.710937 3.820312 8.53125 8.535156 8.53125h8.53125c4.714844 0 8.535156-3.820313 8.535156-8.53125 0-4.714844-3.820312-8.535157-8.535156-8.535157zm0 0"/></svg>