<svg height="511pt" viewBox="0 0 511.98209 511" width="511pt" xmlns="http://www.w3.org/2000/svg"><path d="m463.257812 121.59375-37.804687 37.71875-21.585937-21.503906-50.945313-50.945313 37.800781-37.71875.34375.257813 29.867188 19.113281 12.628906 8.109375 12.542969 19.027344zm0 0" fill="#4e342e"/><path d="m487.40625 97.445312-24.148438 24.148438-72.191406-72.191406-.34375-.257813.085938-.085937 4.609375-4.605469 19.457031-19.457031.167969.171875 28.671875 21.417969 12.289062 9.214843 12.886719 17.066407zm0 0" fill="#4e342e"/><path d="m363.757812 196.773438-265.042968 264.703124c-1.601563 1.578126-3.34375 3.007813-5.207032 4.265626l-13.398437-42.496094 250.027344-250.027344c8.703125 8.792969 20.480469 22.957031 33.621093 23.554688zm0 0" fill="#607d8b"/><path d="m94.515625 412.488281-26.265625 48.136719-58.453125 41.386719c-1.308594-1.230469-1.65625-3.171875-.855469-4.78125l34.648438-74.238281c.941406-2.160157 2.144531-4.191407 3.582031-6.058594zm0 0" fill="#cfd8dc"/><path d="m93.507812 465.742188c-1.460937.9375-2.96875 1.792968-4.523437 2.5625l-74.410156 34.558593c-1.605469.800781-3.546875.453125-4.777344-.851562l78.847656-78.765625zm0 0" fill="#607d8b"/><path d="m330.136719 181.753906-241.492188 241.492188-41.472656-6.3125c.960937-1.300782 2.015625-2.527344 3.15625-3.671875l265.132813-264.789063c.539062 12.542969 5.78125 24.421875 14.675781 33.28125zm0 0" fill="#cfd8dc"/><path d="m493.464844 91.386719-6.058594 6.058593-58.113281-58.113281-14.25-14.164062-.167969-.171875 3.070312-3.070313 2.988282-2.902343c6.390625-6.429688 15.082031-10.046876 24.148437-10.046876 9.066407 0 17.757813 3.617188 24.148438 10.046876l11.777343 11.777343 12.457032 12.371094c13.292968 13.324219 13.292968 34.890625 0 48.214844zm0 0" fill="#ff9801"/><path d="m441.753906 100.003906h-.085937l-37.800781 37.804688-14.933594-14.933594-21.503906-21.589844-14.507813-14.421875 37.800781-37.71875.085938-.085937 4.609375-4.605469 16.640625 10.667969 8.875 13.394531zm0 0" fill="#795548"/><path d="m465.902344 75.941406-19.796875 19.710938-4.351563 4.351562h-.085937l-14.933594-14.933594-21.503906-21.589843-14.164063-14.078125-.257812-.34375 4.609375-4.605469 22.527343-22.527344 16.46875 12.371094 9.300782 12.289063zm0 0" fill="#795548"/><g fill="#fec108"><path d="m471.960938 69.796875-3.070313 3.070313-2.988281 3.074218-36.609375-36.609375-14.25-14.164062-.167969-.171875 3.070312-3.070313 2.988282-2.902343c6.390625-6.429688 15.082031-10.046876 24.148437-10.046876 9.066407 0 17.757813 3.617188 24.148438 10.046876l3.925781 3.925781c12.164062 13.433593 11.640625 34.050781-1.195312 46.847656zm0 0"/><path d="m363.503906 94.730469-10.515625-7.851563-34.738281-25.597656c-1.601562-1.605469-3.773438-2.507812-6.042969-2.507812-2.265625 0-4.4375.902343-6.039062 2.507812l-24.175781 24.140625c-3.332032 3.332031-3.332032 8.734375 0 12.066406l33.476562 46.214844zm0 0"/><path d="m368.621094 196.765625 46.269531 33.457031c1.601563 1.605469 3.773437 2.507813 6.042969 2.507813 2.265625 0 4.4375-.902344 6.039062-2.507813l24.167969-24.132812c1.613281-1.59375 2.519531-3.765625 2.519531-6.03125 0-2.269532-.90625-4.441406-2.519531-6.035156l-25.675781-34.695313-7.851563-10.503906zm0 0"/></g><path d="m417.859375 145.742188c.03125 1.054687-.027344 2.113281-.171875 3.160156v.082031c-.007812.800781-.066406 1.597656-.167969 2.390625-2.804687 25.136719-23.539062 44.457031-48.8125 45.484375-.707031.070313-1.421875.101563-2.132812.082031-.941407.03125-1.882813-.027344-2.816407-.167968-10.289062-.464844-20.1875-4.101563-28.328124-10.410157 3.65625 1.105469 7.441406 1.738281 11.261718 1.875.933594.144531 1.875.199219 2.816406.171875.710938.015625 1.425782-.011718 2.132813-.085937 25.269531-1.023438 46.007813-20.347657 48.8125-45.480469.101563-.792969.160156-1.59375.167969-2.390625v-.085937c.144531-1.046876.203125-2.101563.171875-3.15625.070312-16.023438-7.464844-31.125-20.308594-40.707032 22.105469 6.152344 37.394531 26.292969 37.375 49.238282zm0 0" fill="#c52828"/><path d="m400.792969 137.210938c.03125 1.054687-.027344 2.109374-.171875 3.15625v.085937c-.007813.796875-.066406 1.597656-.167969 2.390625-2.804687 25.132812-23.542969 44.457031-48.8125 45.480469-.707031.074219-1.421875.101562-2.132813.085937-.941406.027344-1.882812-.027344-2.816406-.171875-3.820312-.136719-7.605468-.769531-11.261718-1.875-1.882813-1.398437-3.648438-2.941406-5.292969-4.609375-8.894531-8.859375-14.136719-20.738281-14.675781-33.28125-.144532-.902344-.203126-1.816406-.171876-2.730468-.015624-.710938.011719-1.421876.085938-2.132813 1.039062-25.28125 20.414062-45.996094 45.566406-48.726563.851563-.101562 1.707032-.160156 2.5625-.167968 1.015625-.144532 2.042969-.199219 3.070313-.171875 4.707031-.007813 9.390625.65625 13.910156 1.960937 12.84375 9.582032 20.378906 24.683594 20.308594 40.707032zm0 0" fill="#f44335"/><path d="m453.445312 198.050781c10.582032 4.34375 17 15.179688 15.71875 26.550781-1.28125 11.367188-9.945312 20.503907-21.230468 22.386719-11.28125 1.878907-22.445313-3.953125-27.34375-14.289062zm0 0" fill="#ff5722"/><path d="m328.875 157.785156c-5.757812-5.757812-6.644531-14.777344-2.121094-21.546875 4.519532-6.769531 13.195313-9.402343 20.714844-6.289062 7.523438 3.113281 11.800781 11.105469 10.214844 19.089843-1.582032 7.984376-8.585938 13.738282-16.726563 13.746094-4.535156.015625-8.886719-1.785156-12.082031-5zm0 0" fill="#f5f5f5"/><path d="m358.050781 156.835938c-4.066406-4.054688-4.703125-10.417969-1.519531-15.199219 3.183594-4.777344 9.296875-6.644531 14.609375-4.457031 5.308594 2.1875 8.335937 7.820312 7.226563 13.453124-1.109376 5.636719-6.042969 9.703126-11.785157 9.71875-3.199219.019532-6.273437-1.246093-8.53125-3.515624zm0 0" fill="#c52828"/><path d="m279.535156 91.386719c-10.589844-4.734375-16.675781-15.992188-14.832031-27.445313 1.84375-11.449218 11.15625-20.230468 22.695313-21.398437 11.539062-1.167969 22.421874 5.566406 26.527343 16.417969zm0 0" fill="#ff5722"/><path d="m366.558594 120.144531c-12.214844.003907-22.722656 8.636719-25.101563 20.617188-2.375 11.980469 4.042969 23.972656 15.332031 28.640625 11.285157 4.664062 24.296876.707031 31.074219-9.453125 6.78125-10.160157 5.4375-23.691407-3.207031-32.324219-4.792969-4.804688-11.308594-7.5-18.097656-7.480469zm6.050781 31.632813c-1.601563 1.605468-3.777344 2.511718-6.046875 2.511718s-4.445312-.90625-6.046875-2.511718c-3.3125-3.339844-3.296875-8.730469.035156-12.050782 3.328125-3.324218 8.71875-3.324218 12.050781 0 3.328126 3.320313 3.34375 8.710938.03125 12.050782zm0 0"/><path d="m475.289062 12.964844c-16.699218-16.632813-43.699218-16.632813-60.398437 0l-6.050781 6.042968-24.15625 24.140626-32.589844 32.542968-28.375-21.007812c-1.066406-.945313-2.246094-1.753906-3.515625-2.40625-6.65625-12.6875-20.539063-19.847656-34.734375-17.921875-14.199219 1.925781-25.671875 12.53125-28.703125 26.53125-3.035156 14.003906 3.015625 28.40625 15.140625 36.039062.730469 2.210938 1.917969 4.246094 3.480469 5.972657l30.898437 42.664062-261.929687 261.625c-3.535157 3.519531-6.425781 7.636719-8.53125 12.160156l-34.613281 74.238282c-1.859376 3.964843-1.5625 8.601562.78125 12.296874 2.34375 3.691407 6.414062 5.933594 10.789062 5.941407 1.886719-.003907 3.746094-.421875 5.453125-1.222657l74.34375-34.566406c4.527344-2.109375 8.648437-5 12.175781-8.535156l261.972656-261.621094 42.738282 30.863282c1.628906 1.492187 3.53125 2.648437 5.605468 3.414062 8.214844 12.679688 23.785157 18.449219 38.277344 14.1875 14.492188-4.265625 24.460938-17.546875 24.5-32.652344.035156-12.488281-6.824218-23.976562-17.832031-29.867187-.644531-1.199219-1.425781-2.3125-2.332031-3.328125l-21.007813-28.332032 62.789063-62.71875c8.011718-7.996093 12.515625-18.851562 12.515625-30.171874 0-11.320313-4.503907-22.171876-12.515625-30.167969zm-12.058593 12.074218 24.175781 24.140626c4.808594 4.792968 7.511719 11.304687 7.511719 18.09375 0 6.792968-2.703125 13.300781-7.511719 18.097656l-60.414062-60.339844c10.023437-9.972656 26.222656-9.96875 36.238281.007812zm0 84.480469-60.414063-60.347656 12.082032-12.074219 60.390624 60.347656zm-96.671875 78.890625c-23.554688-.039062-42.625-19.15625-42.597656-42.710937.023437-23.558594 19.132812-42.636719 42.6875-42.621094 23.554687.011719 42.644531 19.109375 42.644531 42.664063-.042969 23.574218-19.160157 42.664062-42.734375 42.667968zm-76.441406-137.386718c3.816406.039062 7.507812 1.375 10.46875 3.789062-.152344.144531-.332032.238281-.476563.390625l-23.347656 23.324219c-2.382813-2.960938-3.691407-6.640625-3.710938-10.4375 0-9.425782 7.640625-17.066406 17.066407-17.066406zm-2.074219 40.429687v-.058594l24.164062-24.117187c.296875.296875.613281.566406.949219.8125l30.386719 22.484375c-14.6875 6.167969-26.324219 17.910156-32.359375 32.648437l-22.304688-30.796875c-.253906-.34375-.535156-.667969-.835937-.972656zm-236.757813 335.097656c.050782-.113281.136719-.214843.1875-.335937l19.191406 2.929687-38.527343 38.476563zm30.839844 15.300781 2.160156 19.242188-40.109375 18.644531zm17.917969 6.296876-2.449219-21.8125 10.855469-10.855469c3.234375-3.347657 3.1875-8.667969-.101563-11.960938-3.292968-3.292969-8.617187-3.335937-11.964844-.105469l-10.757812 10.761719-20.890625-3.183593 245.546875-245.28125c2.007812 5.625 4.851562 10.917968 8.4375 15.691406l-51.644531 51.304687c-2.476563 2.058594-3.585938 5.339844-2.859375 8.480469.726562 3.140625 3.160156 5.605469 6.289062 6.371094 3.132813.765625 6.425782-.300782 8.519532-2.753906l51.726562-51.335938c4.796875 3.59375 10.101562 6.445312 15.746094 8.457031zm343.671875-209.390626c-3.570313-.039062-7.039063-1.199218-9.914063-3.320312l23.371094-23.347656c.121094-.109375.207031-.257813.316406-.375 3.796875 5.171875 4.355469 12.042968 1.441407 17.761718-2.910157 5.71875-8.796876 9.308594-15.214844 9.28125zm1.390625-38.742187-24.183594 24.140625c-.316406-.3125-.664063-.601562-1.03125-.855469l-30.789063-22.289062c14.746094-6.015625 26.496094-17.640625 32.667969-32.324219l22.535157 30.371094c.246093.335937.511718.65625.800781.957031zm-18.773438-53.761719c0-.167968 0-.339844 0-.511718-.054687-32.992188-26.808593-59.714844-59.800781-59.730469-.179688 0-.347656 0-.527344 0l-.0625-.054688 24.75-24.746093 60.421875 60.347656-24.746093 24.746094zm0 0"/><path d="m215.816406 283.921875-93.867187 93.867187c-2.21875 2.144532-3.109375 5.316407-2.328125 8.300782s3.113281 5.3125 6.097656 6.09375c2.980469.78125 6.15625-.109375 8.296875-2.328125l93.867187-93.867188c3.234376-3.347656 3.1875-8.667969-.105468-11.960937-3.289063-3.292969-8.613282-3.335938-11.960938-.105469zm0 0"/></svg>