<svg height="512" viewBox="0 0 60 60" width="512" xmlns="http://www.w3.org/2000/svg"><g id="Page-1" fill="none" fill-rule="evenodd"><g id="015---Anxiety" fill-rule="nonzero" transform="translate(-1 -1)"><path id="Shape" d="m49 46v5c0 2.209139-1.790861 4-4 4h-14v-11c0-1.6568542 1.3431458-3 3-3h8c1.6568542 0 3 1.3431458 3 3h2c1.1032019.0032948 1.9967052.8967981 2 2z" fill="#ffe0b2"/><path id="Shape" d="m47 44h-2c0-1.6568542-1.3431458-3-3-3h-3c1.6568542 0 3 1.3431458 3 3h2c1.1032019.0032948 1.9967052.8967981 2 2v5c0 2.209139-1.790861 4-4 4h3c2.209139 0 4-1.790861 4-4v-5c-.0032948-1.1032019-.8967981-1.9967052-2-2z" fill="#dfc49c"/><path id="Shape" d="m31 44v11h-14c-2.209139 0-4-1.790861-4-4v-5c.0032948-1.1032019.8967981-1.9967052 2-2h2c0-1.6568542 1.3431458-3 3-3h8c1.6568542 0 3 1.3431458 3 3z" fill="#ffe0b2"/><path id="Shape" d="m49.22 36c-.7083936 2.9477319-2.0990496 5.6879407-4.06 8h-.16c0-1.6568542-1.3431458-3-3-3h-8c-1.6568542 0-3 1.3431458-3 3 0-1.6568542-1.3431458-3-3-3h-8c-1.6568542 0-3 1.3431458-3 3h-.16c-1.9609504-2.3120593-3.3516064-5.0522681-4.06-8-.6740409-2.6470726-.8938298-5.3893619-.65-8.11.01-.11.03-.43.06-.89.09-1.29.26-3.66.44-5.5.1387677-1.4414129 1.2958684-2.5731756 2.74-2.68 3.82-.28 11.37-1.36 14.85-5.45.192252-.2325694.4782561-.3672179.78-.3672179s.587748.1346485.78.3672179c3.48 4.09 11.03 5.17 14.85 5.45 1.4441316.1068244 2.6012323 1.2385871 2.74 2.68.18 1.84.35 4.21.44 5.5.03.46.05.78.06.89.2438298 2.7206381.0240409 5.4629274-.65 8.11z" fill="#ffe0b2"/><path id="Shape" d="m49.87 27.89c-.01-.11-.03-.43-.06-.89-.09-1.29-.26-3.66-.44-5.5-.1387677-1.4414129-1.2958684-2.5731756-2.74-2.68-3.82-.28-11.37-1.36-14.85-5.45-.192252-.2325694-.4782561-.3672179-.78-.3672179s-.587748.1346485-.78.3672179c-.2257396.2636257-.4661187.5143544-.72.751 3.716 3.473 10.555 4.437 14.13 4.7 1.4441316.1068244 2.6012323 1.2385871 2.74 2.68.18 1.84.35 4.21.44 5.5.03.46.05.78.06.89.2437158 2.7203074.0239277 5.4622489-.65 8.109-.4991777 1.9947005-1.2939749 3.9034946-2.358 5.663.7172314.5636004 1.1366037 1.4248244 1.138 2.337h.16c1.9609504-2.3120593 3.3516064-5.0522681 4.06-8 .6740409-2.6470726.8938298-5.3893619.65-8.11z" fill="#dfc49c"/><path id="Shape" d="m18 27.276c-.4408769.0005403-.8300902-.2877099-.9581268-.709586-.1280366-.421876.0353166-.8778265.4021268-1.122414 1.9626412-1.2742027 4.2206383-2.0208985 6.556-2.168.5522847 0 1 .4477153 1 1s-.4477153 1-1 1c-1.9394975.1464369-3.8114416.7762627-5.445 1.832-.1643469.1095861-.3574677.1680443-.555.168z" fill="#a0522d"/><path id="Shape" d="m26 31.27c.0005923 1.4068726-.9765466 2.6251777-2.35 2.93-.9036427-.5450489-1.9124149-.8926663-2.96-1.02-.8445641-1.0192345-.9213168-2.4715338-.1888885-3.5741109.7324284-1.102577 2.1009168-1.5948205 3.3678522-1.2114119 1.2669354.3834085 2.1328578 1.5518446 2.1310363 2.8755228z" fill="#3f51b5"/><path id="Shape" d="m44 27.276c-.1967481-.0000537-.3891089-.0581446-.553-.167-1.6357078-1.0529579-3.5074865-1.6828405-5.447-1.833-.5522847 0-1-.4477153-1-1s.4477153-1 1-1c2.3350177.147271 4.5926498.89396 6.555 2.168.3666557.2444851.5300428.7001723.4022708 1.1219349s-.5165789.710164-.9572708.7100651z" fill="#a0522d"/><path id="Shape" d="m42 31.27c.0008934.6978464-.2433152 1.3738441-.69 1.91-1.0475851.1273337-2.0563573.4749511-2.96 1.02-1.5346884-.3406069-2.5461786-1.8081466-2.3183182-3.3635763.2278603-1.5554296 1.6177853-2.6711776 3.1856846-2.5572755 1.5678992.113902 2.7819717 1.4188209 2.7826336 2.9908518z" fill="#3f51b5"/><path id="Shape" d="m12.78 36.0000082-2.78-.0000082c-.79621955.0018644-1.56036501-.3136074-2.1233788-.8766212s-.87848558-1.3271592-.8766212-2.1233788v-3c-.00063229-.4581098.10550828-.9100632.31-1.32v-.01c.50599225-1.0230444 1.54866403-1.6703536 2.69-1.67h2.19c-.03.46-.05.78-.06.89-.2438298 2.7206381-.0240409 5.4629274.65 8.1100082z" fill="#ffe0b2"/><path id="Shape" d="m55 30v3c.0018644.7962196-.3136074 1.560365-.8766212 2.1233788s-1.3271592.8784856-2.1233788.8766212l-2.78.0000082c.6740409-2.6470808.8938298-5.3893701.65-8.1100082-.01-.11-.03-.43-.06-.89h2.19c1.141336-.0003536 2.1840078.6469556 2.69 1.67v.01c.2044917.4099368.3106323.8618902.31 1.32z" fill="#ffe0b2"/><path id="Shape" d="m54.69 28.68v-.01c-.5059922-1.0230444-1.548664-1.6703536-2.69-1.67h-2.19l.007.115c.8160311.2303495 1.4964739.795266 1.873 1.555v.01c.2044917.4099368.3106323.8618902.31 1.32v3c.0010086 1.1014933-.601694 2.1149551-1.57 2.64-.3719826.1943795-.7810056.3075426-1.2.332l-.01.0280082 2.78-.0000082c.7962196.0018644 1.560365-.3136074 2.1233788-.8766212s.8784856-1.3271592.8766212-2.1233788v-3c.0006323-.4581098-.1055083-.9100632-.31-1.32z" fill="#dfc49c"/><path id="Shape" d="m33 37h-4c-.5522847 0-1-.4477153-1-1s.4477153-1 1-1h4c.5522847 0 1 .4477153 1 1s-.4477153 1-1 1z" fill="#dfc49c"/><path id="Shape" d="m55 25c.0036428 1.2300228-.1000841 2.4580162-.31 3.67-.5059922-1.0230444-1.548664-1.6703536-2.69-1.67h-2.19c-.09-1.29-.26-3.66-.44-5.5-.1387677-1.4414129-1.2958684-2.5731756-2.74-2.68-3.82-.28-11.37-1.36-14.85-5.45-.192252-.2325694-.4782561-.3672179-.78-.3672179s-.587748.1346485-.78.3672179c-3.48 4.09-11.03 5.17-14.85 5.45-1.4441316.1068244-2.6012323 1.2385871-2.74 2.68-.18 1.84-.35 4.21-.44 5.5h-2.19c-1.14133597-.0003536-2.18400775.6469556-2.69 1.67-.20991585-1.2119838-.31364282-2.4399772-.31-3.67-.00302007-3.0313349.61998983-6.0306339 1.83-8.81.52-.17 1.01-.34 1.44-.5.3377065-.1077685.586948-.3951187.6459078-.7446662.0589598-.3495474-.0822359-.7027545-.3659078-.9153338-.14-.11-.28-.23-.43-.35 1.0282265-1.7582034 2.293418-3.3666117 3.76-4.78.59.18 1.16.33 1.66.46.3417734.09986271.7107407.00214648.9582854-.25378956.2475447-.25593605.3329111-.62795466.2217146-.96621044-.12-.4-.26-.85-.42-1.31 8.7420461-6.43985968 20.6579539-6.43985968 29.4 0-.16.46-.3.91-.42 1.31-.1111965.33825578-.0258301.71027439.2217146.96621044.2475447.25593604.616512.35365227.9582854.25378956.5-.13 1.07-.28 1.66-.46 1.466582 1.4133883 2.7317735 3.0217966 3.76 4.78-.15.12-.29.24-.43.35-.2836719.2125793-.4248676.5657864-.3659078.9153338.0589598.3495475.3082013.6368977.6459078.7446662.43.16.92.33 1.44.5 1.2100102 2.7793661 1.8330201 5.7786651 1.83 8.81z" fill="#a0522d"/><path id="Shape" d="m53.17 16.19c-.52-.17-1.01-.34-1.44-.5-.3377065-.1077685-.586948-.3951187-.6459078-.7446662-.0589598-.3495474.0822359-.7027545.3659078-.9153338.14-.11.28-.23.43-.35-1.0282265-1.7582034-2.293418-3.3666117-3.76-4.78-.59.18-1.16.33-1.66.46-.3417734.09986271-.7107407.00214648-.9582854-.25378956-.2475447-.25593605-.3329111-.62795466-.2217146-.96621044.12-.4.26-.85.42-1.31-4.2497641-3.15534765-9.4069555-4.84985338-14.7-4.83-.5 0-1 .031-1.5.061 4.7717012.26456964 9.3610644 1.92265094 13.2 4.769-.16.46-.3.91-.42 1.31-.1111965.33825578-.0258301.71027439.2217146.96621044.2475447.25593604.616512.35365227.9582854.25378956.5-.13 1.07-.28 1.66-.46 1.466582 1.4133883 2.7317735 3.0217966 3.76 4.78-.15.12-.29.24-.43.35-.2836719.2125793-.4248676.5657864-.3659078.9153338.0589598.3495475.3082013.6368977.6459078.7446662.43.16.92.33 1.44.5 1.2100102 2.7793661 1.8330201 5.7786651 1.83 8.81 0 .674-.035 1.341-.095 2h.095c1.141336-.0003536 2.1840078.6469556 2.69 1.67.2099159-1.2119838.3136428-2.4399772.31-3.67.0030201-3.0313349-.6199898-6.0306339-1.83-8.81z" fill="#783e22"/><path id="Rectangle-path" d="m18 55h13v5h-13z" fill="#ffe0b2"/><path id="Rectangle-path" d="m31 55h13v5h-13z" fill="#ffe0b2"/><path id="Rectangle-path" d="m41 55h3v5h-3z" fill="#dfc49c"/><path id="Shape" d="m18 55v5h-16c.08838567-2.7227754 1.27951231-5.2927213 3.3-7.12v-.01c2.22930834-2.1037809 4.8438185-3.7573737 7.7-4.87v3c0 2.209139 1.790861 4 4 4z" fill="#9d27b0"/><path id="Shape" d="m60 60h-16v-5h1c2.209139 0 4-1.790861 4-4v-3c2.8561815 1.1126263 5.4706917 2.7662191 7.7 4.87v.01c2.0204877 1.8272787 3.2116143 4.3972246 3.3 7.12z" fill="#9d27b0"/><path id="Shape" d="m56.7 52.88v-.01c-2.2293083-2.1037809-4.8438185-3.7573737-7.7-4.87v1.417c1.7181371.9291759 3.2997406 2.0911496 4.7 3.453v.01c2.0204877 1.8272787 3.2116143 4.3972246 3.3 7.12h3c-.0883857-2.7227754-1.2795123-5.2927213-3.3-7.12z" fill="#6a1b9a"/><g fill="#dfc49c"><path id="Shape" d="m22 48c-.5522847 0-1-.4477153-1-1v-6c0-.5522847.4477153-1 1-1s1 .4477153 1 1v6c0 .5522847-.4477153 1-1 1z"/><path id="Shape" d="m26 48c-.5522847 0-1-.4477153-1-1v-6c0-.5522847.4477153-1 1-1s1 .4477153 1 1v6c0 .5522847-.4477153 1-1 1z"/><path id="Shape" d="m36 48c-.5522847 0-1-.4477153-1-1v-6c0-.5522847.4477153-1 1-1s1 .4477153 1 1v6c0 .5522847-.4477153 1-1 1z"/><path id="Shape" d="m40 48c-.5522847 0-1-.4477153-1-1v-6c0-.5522847.4477153-1 1-1s1 .4477153 1 1v6c0 .5522847-.4477153 1-1 1z"/></g><path id="Shape" d="m51.68 7.31c-1.0788603.74429231-2.2856977 1.28330118-3.56 1.59-.59.18-1.16.33-1.66.46-.3417734.09986271-.7107407.00214648-.9582854-.25378956-.2475447-.25593605-.3329111-.62795466-.2217146-.96621044.12-.4.26-.85.42-1.31.3568406-1.38230503.9708804-2.68501919 1.81-3.84 1.1985449-1.26669057 3.1945367-1.32920486 4.47-.14 1.1458281 1.3154234 1.0116719 3.3098793-.3 4.46z" fill="#02a9f4"/><path id="Shape" d="m51.98 2.85c-.9698548-.93526524-2.4390479-1.12196503-3.612-.459.2245826.12343905.4306154.27796362.612.459 1.1458281 1.3154234 1.0116719 3.3098793-.3 4.46-1.0149418.70921113-2.1514381 1.22610851-3.353 1.525.1960665.43091088.6774915.65398953 1.133.525.5-.13 1.07-.28 1.66-.46 1.2743023-.30669882 2.4811397-.84570769 3.56-1.59 1.3116719-1.1501207 1.4458281-3.1445766.3-4.46z" fill="#0377bc"/><path id="Shape" d="m57.2 16.97c-1.3801066-.0075695-2.7467357-.2720784-4.03-.78-.52-.17-1.01-.34-1.44-.5-.3377065-.1077685-.586948-.3951187-.6459078-.7446662-.0589598-.3495474.0822359-.7027545.3659078-.9153338.14-.11.28-.23.43-.35 1.39-1.1 3.27-2.46 4.33-2.63 1.703569-.3660122 3.3816797.7169286 3.75 2.42.1996468 1.7273221-1.0337368 3.2913955-2.76 3.5z" fill="#02a9f4"/><path id="Shape" d="m59.96 13.47c-.3683203-1.7030714-2.046431-2.7860122-3.75-2.42-.3075209.0628509-.60519.1667828-.885.309.8566646.3949055 1.466896 1.1827945 1.635 2.111.1811408 1.4041124-.6245611 2.7491549-1.948 3.252.7093538.2093164 1.4497932.2932419 2.188.248 1.7262632-.2086045 2.9596468-1.7726779 2.76-3.5z" fill="#0377bc"/><path id="Shape" d="m15.54 9.36c-.5-.13-1.07-.28-1.66-.46-1.2743023-.30669882-2.4811397-.84570769-3.56-1.59-1.31167192-1.1501207-1.44582815-3.1445766-.3-4.46 1.2754633-1.18920486 3.2714551-1.12669057 4.47.14.8391196 1.15498081 1.4531594 2.45769497 1.81 3.84.16.46.3.91.42 1.31.1111965.33825578.0258301.71027439-.2217146.96621044-.2475447.25593604-.616512.35365227-.9582854.25378956z" fill="#02a9f4"/><path id="Shape" d="m10.27 15.69c-.43.16-.92.33-1.44.5-1.28326427.5079216-2.6498934.7724305-4.03.78-1.7262632-.2086045-2.95964678-1.7726779-2.76-3.5.36832032-1.7030714 2.04643103-2.7860122 3.75-2.42 1.06.17 2.94 1.53 4.33 2.63.15.12.29.24.43.35.2836719.2125793.4248676.5657864.3659078.9153338-.0589598.3495475-.3082013.6368977-.6459078.7446662z" fill="#02a9f4"/><path id="Shape" d="m16.84 44h-1.84c-1.1032019.0032948-1.9967052.8967981-2 2v2c-2.8561815 1.1126263-5.47069166 2.7662191-7.7 4.87-.44174094-2.6301757-.38747395-5.3197833.16-7.93.72204664-3.1964837 1.76396357-6.3121838 3.11-9.3.43888618.2381455.93066991.3619512 1.43.36h2.78c.7083936 2.9477319 2.0990496 5.6879407 4.06 8z" fill="#a0522d"/><path id="Shape" d="m56.7 52.87c-2.2293083-2.1037809-4.8438185-3.7573737-7.7-4.87v-2c-.0032948-1.1032019-.8967981-1.9967052-2-2h-1.84c1.9609504-2.3120593 3.3516064-5.0522681 4.06-8h2.78c.4993301.0019512.9911138-.1218545 1.43-.36 1.3460364 2.9878162 2.3879534 6.1035163 3.11 9.3.547474 2.6102167.6017409 5.2998243.16 7.93z" fill="#a0522d"/><path id="Shape" d="m56.54 44.94c-.7220466-3.1964837-1.7639636-6.3121838-3.11-9.3-.4388862.2381455-.9306699.3619512-1.43.36h-1.423c1.2833402 2.873728 2.27595 5.8686425 2.963 8.94.3762847 1.8701114.5180437 3.7798274.422 5.685.9803688.6617292 1.8969919 1.4133066 2.738 2.245.4417409-2.6301757.387474-5.3197833-.16-7.93z" fill="#783e22"/><path id="Shape" d="m27 31.272c0-2.209139-1.790861-4-4-4s-4 1.790861-4 4c.0022869.2871193.0358176.5731369.1.853-.4525852.0202564-.9025832.0794755-1.345.177-.5362685.1331006-.8631006.6757315-.73 1.212.1331007.5362685.6757315.8631006 1.212.73.7711895-.1545883 1.5628623-.1785886 2.342-.071h.026c1.394514.1738553 2.691416.807177 3.686 1.8.3923789.3789722 1.0160848.3735524 1.4018186-.0121814s.3911536-1.0094397.0121814-1.4018186c-.068-.067-.138-.122-.206-.186.9409262-.7555726 1.4921073-1.8942884 1.501-3.101zm-5.739.986c-.1719619-.3000912-.2619727-.640132-.261-.986.0013793-1.0028132.7451941-1.8495729 1.7394631-1.980207s1.93157.4952488 2.1919441 1.4636709c.2603741.9684222-.2366848 1.9799531-1.1624072 2.3655361-.7851778-.4183118-1.6316701-.7095889-2.508-.863z" fill="#000"/><path id="Shape" d="m44.243 32.3c-.4423971-.0974688-.8924191-.1563565-1.345-.176.3420343-1.5019319-.2087613-3.066817-1.4161253-4.0234043-1.2073639-.9565873-2.8567427-1.1348872-4.2406421-.4584188-1.3838993.6764685-2.2563946 2.087494-2.2432326 3.6278231.0068481 1.2086514.5578243 2.3499068 1.5 3.107-.068.064-.138.119-.206.186-.2599566.2510745-.3642126.6228779-.2726972.9725073.0915155.3496295.3645604.6226744.7141899.7141899.3496294.0915154.7214328-.0127406.9725073-.2726972.9948011-.9930842 2.2921094-1.6264324 3.687-1.8h.025c.7791245-.1078357 1.5708386-.0838342 2.342.071.5362685.1331006 1.0788994-.1937315 1.212-.73s-.1937315-1.0788994-.73-1.212zm-7.243-1.028c0-1.1045695.8954305-2 2-2s2 .8954305 2 2c.0009856.3463159-.0893872.6867659-.262.987-.8760852.1525912-1.7223237.4435595-2.507.862-.7449133-.3125964-1.2299632-1.0411564-1.231-1.849z" fill="#000"/><path id="Shape" d="m57.521 44.747c-.6631053-3.0125924-1.625206-5.9514886-2.872-8.773.8559816-.7517235 1.3479897-1.8347969 1.351-2.974v-3c-.0019972-.4999687-.0987026-.9950323-.285-1.459.1888029-1.1709018.2841039-2.3549744.285-3.541.0020393-2.4793367-.3978125-4.9426124-1.184-7.294.6494673.1751552 1.3167637.2758032 1.989.3.1856696.0012349.3710767-.0141599.554-.046 1.0959925-.1740599 2.087827-.7501938 2.782-1.616.6951227-.8489509.990385-1.9564273.8101568-3.0387539-.1802282-1.0823267-.8184387-2.0343619-1.7511568-2.6122461-.9358371-.5963333-2.0608845-.82105741-3.154-.63-.35.058-1.323.223-3.907 2.157-.6570688-1.0143571-1.3926561-1.975636-2.2-2.875.8999467-.25409808 1.7325157-.70419079 2.438-1.318.8040009-.76440841 1.2936386-1.80145611 1.373-2.908.0904401-1.09246384-.2941737-2.17093182-1.0554932-2.9596328-.7613195-.78870099-1.8255303-1.21116569-2.9205068-1.1593672-1.1087545.04202643-2.1620112.49591803-2.954 1.273-.7689047.8577298-1.3288502 1.88178659-1.636 2.992-8.6010211-5.68671455-19.7669789-5.68671455-28.368 0-.3071498-1.11021341-.8670953-2.1342702-1.636-2.992-.7921864-.77739123-1.8458747-1.23131516-2.955-1.273-1.0948816-.05209828-2.1591147.37012976-2.92047389 1.15868038-.76135922.78855063-1.14599741 1.86693924-1.05552611 2.95931962.07911787 1.10689674.56877487 2.14434192 1.373 2.909.7055602.61392246 1.5380785 1.06432917 2.438 1.319-.8075204.898863-1.5431203 1.859824-2.2 2.874-2.584-1.934-3.56-2.099-3.907-2.157-1.09342193-.18993998-2.21837823.0346947-3.155.63-.93092489.5782611-1.56758906 1.5295598-1.74719574 2.6106465-.17960669 1.0810868.11525777 2.1871453.80919574 3.0353535.69335273.8662607 1.68507314 1.4425355 2.781 1.616.18459105.0318582.37168979.0469198.559.045.67223626-.0241968 1.33953272-.1248448 1.989-.3-.78852636 2.3530156-1.19007625 4.8183766-1.189 7.3.00069402 1.1863255.09565959 2.3707201.284 3.542-.18550724.4638174-.2818584.9584653-.284 1.458v3c.00353163 1.1388769.49502639 2.2216216 1.35 2.974-1.24542152 2.8215981-2.20715389 5.7600573-2.871 8.772-.52581639 2.5540311-.60532467 5.1798341-.235 7.761-2.01378369 1.9813308-3.1772562 4.6687228-3.244 7.493 0 .5522847.44771525 1 1 1h58c.5522847 0 1-.4477153 1-1-.0666463-2.8247911-1.2305223-5.5126454-3.245-7.494.3712297-2.5804076.2920561-5.2056532-.234-7.759zm-1.962.387c.3807203 1.8744971.511524 3.7911586.389 5.7-1.8157955-1.4326975-3.8164877-2.6140074-5.948-3.512v-1.322c-.0041019-1.581797-1.237964-2.887492-2.817-2.981 1.2518234-1.8444933 2.2026736-3.8761466 2.817-6.019h2c.2921168-.0015382.5831862-.0350716.868-.1 1.1647811 2.6498049 2.0661198 5.407747 2.691 8.234zm-10.559 8.866h-13v-10c0-1.1045695.8954305-2 2-2h8c1.1045695 0 2 .8954305 2 2v3c0 .5522847.4477153 1 1 1s1-.4477153 1-1v-2h1c.5522847 0 1 .4477153 1 1v5c0 1.6568542-1.3431458 3-3 3zm-28 0c-1.6568542 0-3-1.3431458-3-3v-5c0-.5522847.4477153-1 1-1h1v2c0 .5522847.4477153 1 1 1s1-.4477153 1-1v-3c0-1.1045695.8954305-2 2-2h8c1.1045695 0 2 .8954305 2 2v10zm28.442-12c-.7084675-1.2328856-2.0200618-1.9949973-3.442-2h-8c-1.1531181.003719-2.247792.5079987-3 1.382-.752208-.8740013-1.8468819-1.378281-3-1.382h-8c-1.4219382.0050027-2.7335325.7671144-3.442 2-2.7113129-4.1406484-3.9228582-9.084939-3.433-14.01.012-.118.038-.5.076-1.037.092-1.341.247-3.584.424-5.356.0921921-.9566379.8596284-1.7080331 1.818-1.78 4.224-.309 11.859-1.474 15.575-5.8 3.68 4.325 11.315 5.49 15.536 5.8.9603813.0711907 1.7295752.8243333 1.821 1.783.177 1.769.332 4.012.425 5.353.037.54.063.919.074 1.028.4915995 4.9278861-.7196243 9.875481-3.432 14.019zm5.437-14h1.121c1.1045695 0 2 .8954305 2 2v3c0 1.1045695-.8954305 2-2 2h-1.516c.458152-2.3034078.5911126-4.659673.395-7zm5.5-15.964c.1434613-.0236663.2886-.0357055.434-.036.4622676-.0037145.9157714.1261557 1.306.374.457086.2725968.7709458.7326376.8580327 1.2576637.0870869.5250262-.0614358 1.0617631-.4060327 1.4673363-.3857949.4754482-.9347876.7902278-1.54.883-1.171554-.0261196-2.3297078-.2551789-3.423-.677-.0807859-.0385995-.1666425-.0655349-.255-.08-.4-.125-.81-.262-1.27-.424 2.345-1.901 3.755-2.676 4.293-2.765zm-8.169-8.324c.434919-.43140611 1.0149947-.68525607 1.627-.712h.063c.5198983-.01556325 1.0212902.19365628 1.3759259.57414281.3546356.38048653.5281186.89533635.4760741 1.41285719-.0481985.61005022-.3215918 1.18036221-.767 1.6-.9636021.63359765-2.0291999 1.09637156-3.15 1.368-.0459882.0118544-.0910968.02689063-.135.045-.442.137-.916.278-1.455.424.146-.5.286-.933.423-1.345v-.014c.3087668-1.20109441.8310849-2.33684822 1.542-3.353zm-37.965 1.276c-.0524339-.51822029.1213005-1.03386165.4766492-1.41468821.3553488-.38082656.8577454-.58979365 1.3783508-.57331179h.068c.6114969.02681546 1.1911233.28026836 1.626.711.6959634.99199272 1.2149584 2.09697177 1.534 3.266.0183329.10944012.0551946.21495249.109.312.116.342.234.7.356 1.1-2.923-.749-4.385-1.421-4.778-1.8-.4472121-.41906333-.7218155-.99002458-.77-1.601zm-5.276 10.994c-.60506597-.092514-1.15403721-.4069248-1.54-.882-.34391411-.4058413-.4920012-.9423651-.40495312-1.4671572.08704807-.524792.40042678-.9847719.85695312-1.2578428.39026188-.2478827.84367901-.3780752 1.306-.375.14673312.00014.29321323.0121794.438.036 1.37742571.5412124 2.64933499 1.319656 3.758 2.3.0665954.0811892.14556298.1513826.234.208.025.014.052.02.077.032.079.062.15.114.231.178-2.833 1.046-4.416 1.316-4.956 1.228zm5.646.649c.6734684-.2367181 1.1654632-.8202201 1.285-1.524.0924623-.5824257-.0865708-1.1751506-.486-1.609.7978651-1.2507336 1.7245917-2.4144207 2.765-3.472.346.1.71.2 1.111.3.1711702.0441965.3472163.0667062.524.067.5278271.0026229 1.0337211-.2109367 1.4-.591.4947637-.51570122.6705313-1.25936294.459-1.942-.065-.221-.128-.427-.191-.631 8.1281446-5.63989787 18.9038554-5.63989787 27.032 0-.063.2-.126.41-.191.631-.2102261.68239436-.0337321 1.42512407.461 1.94.3662789.3800633.8721729.5936229 1.4.591.1764559-.0002717.3521739-.0227824.523-.067.4-.1.766-.2 1.112-.3 1.0409455 1.0585572 1.9677068 2.2236285 2.765 3.476-.3990356.4336436-.5777115 1.0260371-.485 1.608.1189095.7043958.6116376 1.2883131 1.286 1.524.363.133.7.251 1.019.361 1.0524598 2.5383528 1.5947761 5.259109 1.596 8.007 0 .516-.027 1.022-.063 1.522-.5900736-.3375812-1.2572012-.5173647-1.937-.522h-1.262c-.094-1.341-.225-3.122-.373-4.6-.186467-1.9264519-1.734625-3.4378597-3.665-3.578-3.149-.23-10.834-1.189-14.164-5.1-.3931172-.436576-.9530141-.6858487-1.5405-.6858487s-1.1473828.2492727-1.5405.6858487c-3.327 3.911-11.012 4.87-14.164 5.1-1.9270576.1439233-3.4705583 1.6544937-3.656 3.578-.148 1.478-.279 3.259-.373 4.6h-1.262c-.67978046.0047703-1.34687445.1845447-1.937.522-.036-.501-.063-1.006-.063-1.522.00207319-2.748524.54576435-5.4696983 1.6-8.008.317-.11.652-.228 1.015-.361zm-2.615 16.369v-3c0-1.1045695.8954305-2 2-2h1.12c-.1949038 2.3405548-.0602565 4.6968829.4 7h-1.52c-1.1045695 0-2-.8954305-2-2zm-1.559 12.133c.62486834-2.8259327 1.52620837-5.5835441 2.691-8.233.28481381.0649284.57588317.0984618.868.1h2c.6130868 2.1426096 1.5625808 4.1742498 2.813 6.019-1.577459.0955338-2.8090283 1.4006558-2.813 2.981v1.322c-2.13167835.8989261-4.13237862 2.0812498-5.948 3.515-.12323289-1.9101699.00757564-3.8282466.389-5.704zm5.559 4.388v1.479c.0033061 2.7600532 2.2399468 4.9966939 5 5v3h-13.933c.676-5.035 6.31-8.243 8.933-9.479zm7 6.479h11v3h-11zm13 0h11v3h-11zm13 3v-3c2.7600532-.0033061 4.9966939-2.2399468 5-5v-1.481c2.2083573 1.0120154 4.2327245 2.3848 5.99 4.062l.008.007c1.5478754 1.4315119 2.5799354 3.333933 2.936 5.412z" fill="#000"/></g></g></svg>