<svg id="Layer_1" height="512" viewBox="0 0 128 128" width="512" xmlns="http://www.w3.org/2000/svg" xmlns:xlink="http://www.w3.org/1999/xlink" data-name="Layer 1"><linearGradient id="linear-gradient" gradientUnits="userSpaceOnUse" x1="107.186" x2="26.593" y1="126.289" y2="45.696"><stop offset="0" stop-color="#7540aa"/><stop offset="1" stop-color="#5eca74"/></linearGradient><path d="m117.25 115.5a1.75 1.75 0 0 1 -1.75 1.75h-66.679a1.75 1.75 0 0 1 0-3.5h48.944a6.439 6.439 0 0 0 -5.586-3.236l-.213.013a1.715 1.715 0 0 1 -1.784-1.387 11.315 11.315 0 0 0 -11.024-8.931c-.222 0-.439.017-.657.032l-.126.009a1.741 1.741 0 0 1 -1.787-1.215 17.357 17.357 0 0 0 -33.215.446 1.75 1.75 0 0 1 -1.675 1.264 12.252 12.252 0 0 0 -12.191 12.229c0 .255.02.516.038.776h5.705a1.75 1.75 0 0 1 0 3.5h-22.75a1.75 1.75 0 0 1 0-3.5h13.542c-.014-.259-.037-.52-.037-.776a15.762 15.762 0 0 1 14.395-15.674 20.928 20.928 0 0 1 8.883-10.837l2.289-18.79a45.571 45.571 0 0 1 -1.857-8.256 1.75 1.75 0 0 1 3.471-.449 42.043 42.043 0 0 0 1.83 7.971 1.753 1.753 0 0 1 .078.769l-2.068 16.98a20.765 20.765 0 0 1 26.45 12.025 14.846 14.846 0 0 1 13.778 10.358 9.938 9.938 0 0 1 8.335 6.679h13.911a1.75 1.75 0 0 1 1.75 1.75zm-74.562-1.75h-.688a1.75 1.75 0 0 0 0 3.5h.688a1.75 1.75 0 1 0 0-3.5zm4.132-85.268a3.546 3.546 0 0 1 1.94-4.574 3.586 3.586 0 0 1 4.54 1.639l5.949 11.314-.1-2.663c-.241-.981-1.525-6.117-2.982-10.052-1.51-4.076.555-5.583 1.224-5.948a4.248 4.248 0 0 1 5.234 1.458c.91 1.212 2.821 5.607 5.685 13.065a14.734 14.734 0 0 0 2.656-9.053 31.587 31.587 0 0 0 -1.247-7c-.507-1.783-.986-3.467.871-5.05a3.548 3.548 0 0 1 4.045-.442c3.187 1.594 5.506 7.261 5.17 12.634-.2 3.122-.732 6.8-1.211 9.66a10.006 10.006 0 0 0 1.552-3.126 31.7 31.7 0 0 0 .558-3.523c.295-2.475.55-4.612 2.227-5.858a4.218 4.218 0 0 1 4.922-.281c1.286.872 3.183 3.315 1.438 9.885-.315 1.186-.658 2.27-1.021 3.286v27.31a1.75 1.75 0 0 1 -3.5 0v-20.363a54.614 54.614 0 0 1 -5.142 6.2c-.014 2.775.179 5.8.182 5.841a1.744 1.744 0 0 1 -.1.693c-3.483 9.914-7.693 14.472-9.5 16.08l1.375 10.827a1.75 1.75 0 0 1 -1.511 1.959 1.918 1.918 0 0 1 -.223.014 1.75 1.75 0 0 1 -1.734-1.529l-1.5-11.792a1.749 1.749 0 0 1 .765-1.677c.037-.025 4.9-3.484 8.911-14.709a67.016 67.016 0 0 1 0-9.124c-.218-1.235-.964-5.521-1.343-8.442 0-.026-.006-.052-.01-.078-.062-.487-.115-.939-.152-1.325a4.053 4.053 0 0 0 -1.671.85 4.473 4.473 0 0 0 -1.638 3.736c.016.568.036 1.125.055 1.67.19 5.323.354 9.921-3.46 14.5a1.75 1.75 0 1 1 -2.688-2.24c2.958-3.55 2.829-7.15 2.651-12.134-.02-.554-.04-1.119-.057-1.7a8.622 8.622 0 0 1 .129-1.75c-.084 0-.167 0-.251-.013a3.111 3.111 0 0 1 -2.543-1.983c-3.223-8.435-4.969-12.23-5.485-12.919a1.2 1.2 0 0 0 -.686-.461 3.507 3.507 0 0 0 .311 1.637 109.737 109.737 0 0 1 3.145 10.618 1.755 1.755 0 0 1 .046.342l.122 3.245a3.408 3.408 0 0 1 -6.422 1.715l-6.146-11.681-.121.047 4.7 12.106a1.748 1.748 0 0 1 0 1.253 33.774 33.774 0 0 0 -1.446 6.1 1.751 1.751 0 0 1 -1.728 1.485 1.77 1.77 0 0 1 -.267-.021 1.75 1.75 0 0 1 -1.465-1.994 40.085 40.085 0 0 1 1.407-6.151zm32.045 9.248c.228 1.457.478 2.947.68 4.121a28.268 28.268 0 0 0 6.369-12.178c1.122-4.224.366-5.827-.02-6.089-.222-.151-.6-.011-.871.193-.467.347-.665 2-.839 3.464a35.066 35.066 0 0 1 -.625 3.9 15.455 15.455 0 0 1 -2.806 5.344 3.232 3.232 0 0 1 -1.888 1.245zm-6.1-23.348a10.381 10.381 0 0 0 .329 1.334 34.751 34.751 0 0 1 1.371 7.7 16.426 16.426 0 0 1 -1.12 7.105 5.827 5.827 0 0 1 1.668-.326 4.386 4.386 0 0 1 .558.037c.324-2.183.618-4.548.748-6.635.229-3.656-1.1-7.141-2.522-8.693-.484-.527-.818-.651-.9-.653-.065.06-.107.103-.135.131zm-21.655 36.494a1.741 1.741 0 0 0 -1.777 1.724q-.007.448-.006.906a1.75 1.75 0 0 0 1.75 1.744h.006a1.75 1.75 0 0 0 1.744-1.756c0-.284 0-.564.006-.842a1.75 1.75 0 0 0 -1.723-1.776zm35.415 14.707a1.75 1.75 0 0 0 -1.75 1.75v1.667a1.75 1.75 0 0 0 3.5 0v-1.667a1.75 1.75 0 0 0 -1.75-1.75zm-43.358 8.167a1.75 1.75 0 0 0 1.75-1.75v-13.333a1.75 1.75 0 0 0 -3.5 0v13.333a1.75 1.75 0 0 0 1.75 1.75zm0 7.5a1.75 1.75 0 0 0 1.75-1.75v-1.5a1.75 1.75 0 0 0 -3.5 0v1.5a1.75 1.75 0 0 0 1.75 1.75z" fill="url(#linear-gradient)"/></svg>