<svg height="480pt" viewBox="0 0 480 480" width="480pt" xmlns="http://www.w3.org/2000/svg"><path d="m400 56c0 26.507812-21.492188 48-48 48s-48-21.492188-48-48 21.492188-48 48-48 48 21.492188 48 48zm0 0" fill="#e6e7e8"/><path d="m364 102.480469c-3.921875.996093-7.953125 1.507812-12 1.519531-26.507812 0-48-21.492188-48-48s21.492188-48 48-48c4.054688 0 8.089844.535156 12 1.601562-21.191406 5.449219-36.003906 24.554688-36.003906 46.4375 0 21.882813 14.8125 40.988282 36.003906 46.441407zm0 0" fill="#cacbcc"/><path d="m40 96c-.015625 2.734375.472656 5.445312 1.441406 8h117.117188c.96875-2.554688 1.457031-5.265625 1.441406-8 0-13.253906-10.746094-24-24-24 0-17.671875-14.328125-32-32-32s-32 14.328125-32 32c0 .480469.160156 1.039062.160156 1.519531-2.605468-.996093-5.371094-1.511719-8.160156-1.519531-13.253906 0-24 10.746094-24 24zm0 0" fill="#a7a9ac"/><path d="m96 72c0 .480469.160156 1.039062.160156 1.519531-2.605468-.996093-5.371094-1.511719-8.160156-1.519531-13.253906 0-24 10.746094-24 24-.015625 2.734375.472656 5.445312 1.441406 8h-24c-.96875-2.554688-1.457031-5.265625-1.441406-8 0-13.253906 10.746094-24 24-24 2.789062.007812 5.554688.523438 8.160156 1.519531 0-.480469-.160156-1.039062-.160156-1.519531 0-17.671875 14.328125-32 32-32 4.121094-.03125 8.207031.785156 12 2.398438-12.097656 4.84375-20.023438 16.570312-20 29.601562zm0 0" fill="#8d8f91"/><path d="m336 440h-232v32h272v-32zm0 0" fill="#898890"/><path d="m104 440h24v32h-24zm0 0" fill="#706f75"/><path d="m336 312v128h-192v-128c0-53.019531 42.980469-96 96-96s96 42.980469 96 96zm0 0" fill="#d1d3d4"/><path d="m252 216.800781c-48.003906 6.003907-84.019531 46.820313-84 95.199219v128h-24v-128c0-53.019531 42.980469-96 96-96 4.015625-.019531 8.023438.25 12 .800781zm0 0" fill="#b8b9ba"/><path d="m288 296h-32v-32h-32v32h-32v32h32v72h32v-72h32zm0 0" fill="#e6e7e8"/><path d="m352 112c30.929688 0 56-25.070312 56-56s-25.070312-56-56-56-56 25.070312-56 56c.035156 30.914062 25.085938 55.964844 56 56zm0-96c22.089844 0 40 17.910156 40 40s-17.910156 40-40 40-40-17.910156-40-40c.027344-22.082031 17.917969-39.972656 40-40zm0 0"/><path d="m41.441406 112h117.117188c3.304687 0 6.265625-2.03125 7.457031-5.113281 1.335937-3.472657 2.007813-7.164063 1.984375-10.886719-.019531-14.832031-10.210938-27.71875-24.640625-31.152344-3.414063-18.875-19.746094-32.671875-38.929687-32.878906-19.179688-.207031-35.808594 13.234375-39.628907 32.03125-8.613281-.171875-16.9375 3.117188-23.101562 9.132812-6.167969 6.015626-9.660157 14.253907-9.699219 22.867188-.023438 3.722656.648438 7.414062 1.984375 10.886719 1.191406 3.082031 4.152344 5.113281 7.457031 5.113281zm27.902344-30.984375c2.457031.925781 5.214844.582031 7.375-.914063 2.15625-1.496093 3.445312-3.953124 3.441406-6.582031.015625-.511719-.039062-1.023437-.160156-1.519531 0-13.253906 10.746094-24 24-24s24 10.746094 24 24c0 4.417969 3.582031 8 8 8 8.835938 0 16 7.164062 16 16h-104c-.039062-5.207031 2.480469-10.097656 6.742188-13.089844 4.261718-2.992187 9.71875-3.699218 14.601562-1.894531zm0 0"/><path d="m160 144h16c0-4.417969 3.582031-8 8-8 1.59375-.003906 3.152344.472656 4.472656 1.367188 2.054688 1.378906 4.632813 1.726562 6.980469.941406 2.347656-.78125 4.199219-2.605469 5.019531-4.941406 1.308594-3.644532 5.042969-5.828126 8.863282-5.179688 3.820312.648438 6.628906 3.9375 6.664062 7.8125h16c.035156-10.113281-6.289062-19.160156-15.800781-22.597656-9.507813-3.441406-20.15625-.535156-26.597657 7.261718-7.148437-1.714843-14.6875-.058593-20.460937 4.492188-5.773437 4.546875-9.140625 11.492188-9.140625 18.84375zm0 0"/><path d="m296 328v-32c0-4.417969-3.582031-8-8-8h-24v-24c0-4.417969-3.582031-8-8-8h-32c-4.417969 0-8 3.582031-8 8v24h-24c-4.417969 0-8 3.582031-8 8v32c0 4.417969 3.582031 8 8 8h24v64c0 4.417969 3.582031 8 8 8h32c4.417969 0 8-3.582031 8-8v-64h24c4.417969 0 8-3.582031 8-8zm-16-8h-24c-4.417969 0-8 3.582031-8 8v64h-16v-64c0-4.417969-3.582031-8-8-8h-24v-16h24c4.417969 0 8-3.582031 8-8v-24h16v24c0 4.417969 3.582031 8 8 8h24zm0 0"/><path d="m440 222.238281 25.945312-6.476562c3.558594-.894531 6.054688-4.09375 6.054688-7.761719v-8h8v-16h-16c-4.417969 0-8 3.582031-8 8v9.753906l-16 4v-53.753906h-16v126.609375l-40-34.289063v-20.320312c0-2.121094-.84375-4.15625-2.34375-5.65625l-32-32-11.3125 11.3125 29.65625 29.65625v20.6875c0 2.335938 1.019531 4.550781 2.792969 6.070312l11.605469 9.929688-11.582032 9.921875c-1.109375.941406-1.9375 2.167969-2.402344 3.550781l-8 24 15.203126 5.054688 7.292968-21.894532 11.785156-10.097656 29.304688 25.144532v164.320312h-40v-24c0-4.417969-3.582031-8-8-8h-32v-120c0-57.4375-46.5625-104-104-104s-104 46.5625-104 104v120h-32c-4.417969 0-8 3.582031-8 8v24h-40v-108.6875l23.199219-23.199219 9.929687 8.503907 7.296875 21.894531 15.199219-5.054688-8-24c-.464844-1.382812-1.292969-2.609375-2.402344-3.554687l-10.6875-9.101563 11.121094-11.121093c1.507812-1.503907 2.351562-3.550782 2.34375-5.679688v-20l28.800781-21.601562-9.601562-12.796876-32 24c-2.011719 1.507813-3.199219 3.878907-3.199219 6.398438v20.6875l-32 32v-124.6875h-16v53.753906l-16-4v-9.753906c0-4.417969-3.582031-8-8-8h-16v16h8v8c0 3.667969 2.496094 6.867188 6.054688 7.761719l25.945312 6.476562v113.160157l-16-11.503907v-27.894531c0-1.242188-.285156-2.464844-.839844-3.574219l-8-16-14.320312 7.148438 7.160156 14.3125v30.113281c0 2.574219 1.238281 4.992188 3.328125 6.496094l28.671875 20.609375v52.894531h-40v16h480v-16h-40v-108.894531l28.671875-20.609375c2.089844-1.503906 3.328125-3.921875 3.328125-6.496094v-30.113281l7.199219-14.3125-14.320313-7.148438-8 16c-.566406 1.105469-.867187 2.328125-.878906 3.574219v27.894531l-16 11.503907zm-288 198.707031 27.574219-13.746093c3.257812-1.621094 5.011719-5.238281 4.265625-8.800781l-2.480469-12.40625 15.441406-11.59375-9.601562-12.796876-9.304688 7.007813-2.054687-10.210937-15.679688 3.136718 6.800782 34.007813-14.960938 7.511719v-91.054688c0-48.601562 39.398438-88 88-88s88 39.398438 88 88v16h-8c-2.675781 0-5.171875 1.335938-6.65625 3.558594l-13.625 20.441406h-11.71875v16h16c1.304688 0 2.589844-.324219 3.742188-.9375l3.105468 3.105469-6.398437 19.304687 15.199219 5.054688 8-24c.957031-2.875.207031-6.042969-1.9375-8.183594l-8.160157-8.160156 6.730469-10.183594h3.71875v88h-176zm-40 43.054688v-16h256v16zm0 0"/></svg>