<svg id="Capa_1" enable-background="new 0 0 512.029 512.029" height="512" viewBox="0 0 512.029 512.029" width="512" xmlns="http://www.w3.org/2000/svg" xmlns:xlink="http://www.w3.org/1999/xlink"><linearGradient id="SVGID_1_" gradientUnits="userSpaceOnUse" x1=".014" x2="512.014" y1="256.014" y2="256.014"><stop offset="0" stop-color="#80d8ff"/><stop offset="1" stop-color="#ea80fc"/></linearGradient><g><path d="m433.348 208.382v-31.049c0-97.782-79.552-177.333-177.334-177.333s-177.333 79.551-177.333 177.333v31.049c-5.869 8.086-78.667 61.076-78.667 165.618 0 40.601 40.164 69.393 78.667 56.082 0 .306.002 61.786.002 61.952.012 15.106 16.346 24.86 29.665 17.475l57.796-31.91 21.904 27.001c6.812 8.397 19.064 9.859 27.661 3.303l40.313-30.749 40.314 30.749c8.598 6.558 20.851 5.095 27.663-3.304l21.896-26.998c7.444 4.11 51.45 28.41 57.813 31.92 13.341 7.358 29.64-2.424 29.64-17.521v-61.918c38.53 13.321 78.667-15.505 78.667-56.082-.001-104.464-72.857-157.384-78.667-165.618zm19.333 184.951c-10.66 0-19.333-8.673-19.333-19.333 0-24.257-9.447-47.063-26.6-64.217-7.811-7.812-20.474-7.811-28.285-.001-7.811 7.811-7.811 20.474 0 28.284 9.599 9.6 14.885 22.36 14.885 35.934v84.11l-42.773-23.618c-8.479-4.686-19.099-2.615-25.201 4.909l-20.214 24.924-37.008-28.228c-7.164-5.463-17.096-5.463-24.259 0l-37.009 28.229-20.222-24.926c-6.102-7.523-16.719-9.592-25.198-4.909l-42.783 23.621v-84.112c0-13.573 5.286-26.334 14.885-35.934 7.81-7.811 7.81-20.474 0-28.284-7.812-7.811-20.474-7.81-28.285.001-17.153 17.153-26.6 39.96-26.6 64.217 0 10.66-8.673 19.333-19.333 19.333-10.661 0-19.333-8.673-19.333-19.333 0-89.09 63.328-130.455 72.809-143.19 3.866-3.901 5.858-9.052 5.858-14.143v-39.334c-.001-75.726 61.606-137.333 137.332-137.333s137.333 61.607 137.333 137.333c.035 41.181-.081 39.475.1 41.307.452 4.622 2.562 8.945 5.758 12.169 9.514 12.78 72.809 54.039 72.809 143.19 0 10.661-8.673 19.334-19.333 19.334zm-137.333-137.666c0 11.046-8.954 20-20 20s-20-8.954-20-20c0-10.661-8.673-19.334-19.333-19.334s-19.333 8.673-19.333 19.334c0 11.046-8.954 20-20 20s-20-8.954-20-20c0-32.717 26.617-59.334 59.333-59.334s59.333 26.617 59.333 59.334z" fill="url(#SVGID_1_)"/></g></svg>