<?xml version="1.0" encoding="iso-8859-1"?>
<!-- Generator: Adobe Illustrator 19.0.0, SVG Export Plug-In . SVG Version: 6.00 Build 0)  -->
<svg version="1.1" id="Capa_1" xmlns="http://www.w3.org/2000/svg" xmlns:xlink="http://www.w3.org/1999/xlink" x="0px" y="0px"
	 viewBox="0 0 512 512" style="enable-background:new 0 0 512 512;" xml:space="preserve">
<path style="fill:#AA3DC8;" d="M45,496c-6.067,0-11.537-3.655-13.858-9.26s-1.038-12.057,3.252-16.347
	c22.503-22.503,31.572-55.143,24.102-85.944C20.743,344.21,0,293.422,0,241c0-60.482,26.784-117.227,75.417-159.781
	C123.482,39.162,187.259,16,255,16c67.833,0,131.942,23.142,180.519,65.163C484.838,123.826,512,180.591,512,241
	s-27.162,117.174-76.481,159.837C386.942,442.858,322.833,466,255,466c-33.082,0-65.134-5.47-95.426-16.271
	C128.944,479.25,87.744,496,45,496z M255,46C130.935,46,30,133.477,30,241c0,45.837,18.742,90.385,52.774,125.438
	c1.728,1.779,2.987,3.959,3.666,6.345c8.604,30.253,4.992,62.186-9.144,89.275c25.655-6.346,49.209-20.152,67.327-39.951
	c4.208-4.6,10.823-6.115,16.616-3.809C190.733,430.044,222.279,436,255,436c125.168,0,227-87.477,227-195S380.168,46,255,46z"/>
<g>
	<path style="fill:#81C8EE;" d="M135,286c-24.813,0-45-20.187-45-45s20.187-45,45-45s45,20.187,45,45S159.813,286,135,286z M135,226
		c-8.271,0-15,6.729-15,15s6.729,15,15,15s15-6.729,15-15S143.271,226,135,226z"/>
	<path style="fill:#81C8EE;" d="M255,286c-24.813,0-45-20.187-45-45s20.187-45,45-45s45,20.187,45,45S279.813,286,255,286z M255,226
		c-8.271,0-15,6.729-15,15s6.729,15,15,15s15-6.729,15-15S263.271,226,255,226z"/>
	<path style="fill:#81C8EE;" d="M377,286c-24.813,0-45-20.187-45-45s20.187-45,45-45s45,20.187,45,45S401.813,286,377,286z M377,226
		c-8.271,0-15,6.729-15,15s6.729,15,15,15s15-6.729,15-15S385.271,226,377,226z"/>
</g>
<g>
</g>
<g>
</g>
<g>
</g>
<g>
</g>
<g>
</g>
<g>
</g>
<g>
</g>
<g>
</g>
<g>
</g>
<g>
</g>
<g>
</g>
<g>
</g>
<g>
</g>
<g>
</g>
<g>
</g>
</svg>
