<?xml version="1.0" encoding="iso-8859-1"?>
<!-- Generator: Adobe Illustrator 19.0.0, SVG Export Plug-In . SVG Version: 6.00 Build 0)  -->
<svg version="1.1" id="Capa_1" xmlns="http://www.w3.org/2000/svg" xmlns:xlink="http://www.w3.org/1999/xlink" x="0px" y="0px"
	 viewBox="0 0 512 512" style="enable-background:new 0 0 512 512;" xml:space="preserve">
<path style="fill:#343B5E;" d="M512,256c0,141.385-114.615,256-256,256c-86.152,0-162.356-42.548-208.76-107.781
	C17.492,362.392,0,311.233,0,256c0-21.723,2.706-42.809,7.805-62.955C35.85,82.098,136.338,0,256,0C397.385,0,512,114.615,512,256z"
	/>
<path style="fill:#8E76CC;" d="M308.245,287.629c0,43.698-28.108,82.463-71.481,106.642c-0.366,19.466-7.314,59.444-53.906,87.709
	c0,0,12.957-35.286-7.158-65.808c-14.075,2.717-28.839,4.159-44.042,4.159c-30.574,0-59.34-5.841-84.417-16.112
	C17.492,362.392,0,311.233,0,256c0-21.723,2.706-42.809,7.805-62.955c31.869-23.573,75.598-38.118,123.852-38.118
	C229.188,154.927,308.245,214.34,308.245,287.629z"/>
<g>
	<path style="fill:#343B5E;" d="M237.998,255.237H41.796c-5.771,0-10.449-4.678-10.449-10.449l0,0
		c0-5.771,4.678-10.449,10.449-10.449h196.203c5.771,0,10.449,4.678,10.449,10.449l0,0
		C248.447,250.559,243.769,255.237,237.998,255.237z"/>
	<path style="fill:#343B5E;" d="M237.998,305.392H41.796c-5.771,0-10.449-4.678-10.449-10.449l0,0
		c0-5.771,4.678-10.449,10.449-10.449h196.203c5.771,0,10.449,4.678,10.449,10.449l0,0
		C248.447,300.714,243.769,305.392,237.998,305.392z"/>
	<path style="fill:#343B5E;" d="M208.756,356.626H71.038c-4.975,0-9.008-4.033-9.008-9.008v-2.882c0-4.975,4.033-9.008,9.008-9.008
		h137.718c4.975,0,9.008,4.033,9.008,9.008v2.882C217.764,352.592,213.731,356.626,208.756,356.626z"/>
</g>
<path style="fill:#97CBE3;" d="M512,168.189c0-79.459-85.717-143.874-191.455-143.874S129.091,88.73,129.091,168.189
	s85.717,143.874,191.455,143.874c0.392,0,0.781-0.009,1.171-0.011c11.016,20.031,35.89,49.964,88.022,57.079
	c0,0-27.05-28.372-21.657-66.286C460.491,282.325,512,229.781,512,168.189z"/>
<g>
	<path style="fill:#343B5E;" d="M443.843,131.939H197.247c-5.771,0-10.449-4.678-10.449-10.449l0,0
		c0-5.771,4.678-10.449,10.449-10.449h246.596c5.771,0,10.449,4.678,10.449,10.449l0,0
		C454.292,127.261,449.614,131.939,443.843,131.939z"/>
	<path style="fill:#343B5E;" d="M443.843,182.094H197.247c-5.771,0-10.449-4.678-10.449-10.449l0,0
		c0-5.771,4.678-10.449,10.449-10.449h246.596c5.771,0,10.449,4.678,10.449,10.449l0,0
		C454.292,177.416,449.614,182.094,443.843,182.094z"/>
	<path style="fill:#343B5E;" d="M406.601,233.328H234.489c-5.46,0-9.886-4.426-9.886-9.886v-1.127c0-5.46,4.426-9.886,9.886-9.886
		h172.112c5.46,0,9.886,4.426,9.886,9.886v1.127C416.487,228.902,412.061,233.328,406.601,233.328z"/>
</g>
<g>
</g>
<g>
</g>
<g>
</g>
<g>
</g>
<g>
</g>
<g>
</g>
<g>
</g>
<g>
</g>
<g>
</g>
<g>
</g>
<g>
</g>
<g>
</g>
<g>
</g>
<g>
</g>
<g>
</g>
</svg>
