<?xml version="1.0" encoding="iso-8859-1"?>
<!-- Generator: Adobe Illustrator 19.0.0, SVG Export Plug-In . SVG Version: 6.00 Build 0)  -->
<svg version="1.1" id="Capa_1" xmlns="http://www.w3.org/2000/svg" xmlns:xlink="http://www.w3.org/1999/xlink" x="0px" y="0px"
	 viewBox="0 0 512.06 512.06" style="enable-background:new 0 0 512.06 512.06;" xml:space="preserve">
<path style="fill:#4CAF50;" d="M496.03,480.06c8.837,0.015,16.012-7.136,16.027-15.973c0.01-5.842-3.165-11.225-8.283-14.043
	l-41.408-22.912c31.046-26.99,49.111-65.938,49.664-107.072c0-88.224-86.112-160-192-160s-192,71.776-192,160s86.112,160,192,160
	H496.03z"/>
<path style="fill:#388E3C;" d="M79.358,352.06c9.579,0.002,17.346-7.761,17.348-17.34c0-0.514-0.023-1.028-0.068-1.54
	c-0.384-4.32-0.608-8.704-0.608-13.12c0-105.888,100.512-192,224-192c4.64,0,9.216,0,13.792,0.384
	c9.546,0.536,17.719-6.768,18.256-16.314c0.249-4.428-1.212-8.783-4.08-12.166C308.353,55.731,251.419,30.944,192.03,32.06
	c-105.888,0-192,71.776-192,160c0.536,41.138,18.604,80.092,49.664,107.072L8.286,322.044c-7.741,4.262-10.561,13.992-6.299,21.733
	c2.818,5.118,8.201,8.293,14.043,8.283H79.358z"/>
<path d="M80.99,352.06H16.03c-8.837,0.015-16.012-7.136-16.027-15.973c-0.01-5.842,3.165-11.225,8.283-14.043l41.408-22.912
	C18.635,272.152,0.566,233.199,0.03,192.06c0-88.224,86.112-160,192-160c61.002-1.489,119.464,24.425,159.328,70.624
	c5.778,6.685,5.043,16.789-1.642,22.568c-6.685,5.778-16.789,5.043-22.568-1.642c-0.25-0.289-0.489-0.587-0.718-0.893
	c-33.787-38.649-83.087-60.165-134.4-58.656c-88.224,0-160,57.408-160,128c0.68,33.074,15.755,64.205,41.28,85.248
	c4.284,3.983,8.909,7.581,13.824,10.752c7.414,4.808,9.526,14.716,4.718,22.13c-1.429,2.204-3.379,4.022-5.678,5.294l-8.224,4.576
	h3.04c8.837,0,16,7.163,16,16S89.827,352.06,80.99,352.06z"/>
<path d="M496.03,480.06h-176c-105.888,0-192-71.776-192-160s86.112-160,192-160s192,71.776,192,160
	c-0.553,41.134-18.618,80.082-49.664,107.072l41.408,22.912c7.741,4.262,10.561,13.992,6.299,21.733
	C507.255,476.895,501.872,480.07,496.03,480.06z M320.03,192.06c-88.224,0-160,57.408-160,128s71.776,128,160,128h114.08
	l-8.224-4.576c-7.732-4.278-10.532-14.014-6.254-21.746c1.272-2.299,3.09-4.249,5.294-5.678c4.785-3.079,9.293-6.57,13.472-10.432
	l0.352-0.32c25.525-21.043,40.6-52.174,41.28-85.248C480.03,249.468,408.254,192.06,320.03,192.06z"/>
<g>
</g>
<g>
</g>
<g>
</g>
<g>
</g>
<g>
</g>
<g>
</g>
<g>
</g>
<g>
</g>
<g>
</g>
<g>
</g>
<g>
</g>
<g>
</g>
<g>
</g>
<g>
</g>
<g>
</g>
</svg>
