<?xml version="1.0" encoding="iso-8859-1"?>
<!-- Generator: Adobe Illustrator 19.0.0, SVG Export Plug-In . SVG Version: 6.00 Build 0)  -->
<svg version="1.1" id="Capa_1" xmlns="http://www.w3.org/2000/svg" xmlns:xlink="http://www.w3.org/1999/xlink" x="0px" y="0px"
	 viewBox="0 0 512 512" style="enable-background:new 0 0 512 512;" xml:space="preserve">
<g>
	<g>
		<path d="M208,0C93.312,0,0,93.312,0,208v192c0,8.832,7.168,16,16,16h192c114.688,0,208-93.312,208-208S322.688,0,208,0z"/>
	</g>
</g>
<g>
	<g>
		<path d="M447.584,200.032c0.096,2.656,0.416,5.28,0.416,7.968c0,132.352-107.648,240-240,240h-7.648
			c32.32,39.072,81.12,64,135.648,64h160c8.832,0,16-7.168,16-16V336C512,281.28,486.88,232.32,447.584,200.032z"/>
	</g>
</g>
<g>
</g>
<g>
</g>
<g>
</g>
<g>
</g>
<g>
</g>
<g>
</g>
<g>
</g>
<g>
</g>
<g>
</g>
<g>
</g>
<g>
</g>
<g>
</g>
<g>
</g>
<g>
</g>
<g>
</g>
</svg>
