<svg height="480pt" viewBox="0 0 480 480" width="480pt" xmlns="http://www.w3.org/2000/svg"><path d="m177.601562 236.800781c1.507813 2.011719 3.878907 3.199219 6.398438 3.199219.859375-.003906 1.710938-.140625 2.527344-.40625 3.269531-1.089844 5.472656-4.148438 5.472656-7.59375v-56h40c4.417969 0 8-3.582031 8-8v-160c0-4.417969-3.582031-8-8-8h-224c-4.417969 0-8 3.582031-8 8v160c0 4.417969 3.582031 8 8 8h124zm-161.601562-220.800781h208v144h-40c-4.417969 0-8 3.582031-8 8v40l-33.601562-44.800781c-1.507813-2.011719-3.878907-3.199219-6.398438-3.199219h-120zm0 0"/><path d="m472 88h-192c-4.417969 0-8 3.582031-8 8v144c0 4.417969 3.582031 8 8 8h48v40c0 3.234375 1.949219 6.152344 4.9375 7.390625s6.429688.550781 8.71875-1.734375l45.65625-45.65625h84.6875c4.417969 0 8-3.582031 8-8v-144c0-4.417969-3.582031-8-8-8zm-8 144h-80c-2.121094 0-4.15625.84375-5.65625 2.34375l-34.34375 34.34375v-28.6875c0-4.417969-3.582031-8-8-8h-48v-128h176zm0 0"/><path d="m248 320h-48v-40c0-3.234375-1.949219-6.152344-4.9375-7.390625s-6.429688-.550781-8.71875 1.734375l-45.65625 45.65625h-116.6875c-4.417969 0-8 3.582031-8 8v144c0 4.417969 3.582031 8 8 8h224c4.417969 0 8-3.582031 8-8v-144c0-4.417969-3.582031-8-8-8zm-8 144h-208v-128h112c2.121094 0 4.15625-.84375 5.65625-2.34375l34.34375-34.34375v28.6875c0 4.417969 3.582031 8 8 8h48zm0 0"/><path d="m48 48h16v16h-16zm0 0"/><path d="m80 48h16v16h-16zm0 0"/><path d="m112 48h80v16h-80zm0 0"/><path d="m48 80h80v16h-80zm0 0"/><path d="m144 80h16v16h-16zm0 0"/><path d="m176 80h16v16h-16zm0 0"/><path d="m48 112h144v16h-144zm0 0"/><path d="m304 128h16v16h-16zm0 0"/><path d="m336 128h16v16h-16zm0 0"/><path d="m368 128h80v16h-80zm0 0"/><path d="m304 160h80v16h-80zm0 0"/><path d="m400 160h16v16h-16zm0 0"/><path d="m432 160h16v16h-16zm0 0"/><path d="m304 192h144v16h-144zm0 0"/><path d="m64 424h16v16h-16zm0 0"/><path d="m96 424h16v16h-16zm0 0"/><path d="m128 424h80v16h-80zm0 0"/><path d="m64 392h80v16h-80zm0 0"/><path d="m160 392h16v16h-16zm0 0"/><path d="m192 392h16v16h-16zm0 0"/><path d="m64 360h144v16h-144zm0 0"/></svg>